<svg xmlns="http://www.w3.org/2000/svg" viewBox="0 0 500 400">
  <title>Wall Framework Assembly</title>

  <defs>
    <linearGradient id="postGradient" x1="0%" y1="0%" x2="100%" y2="0%">
      <stop offset="0%" style="stop-color:#6B5335"/>
      <stop offset="30%" style="stop-color:#8B7355"/>
      <stop offset="70%" style="stop-color:#8B7355"/>
      <stop offset="100%" style="stop-color:#5B4325"/>
    </linearGradient>
    <linearGradient id="wattleGradient" x1="0%" y1="0%" x2="100%" y2="0%">
      <stop offset="0%" style="stop-color:#806040"/>
      <stop offset="50%" style="stop-color:#A08060"/>
      <stop offset="100%" style="stop-color:#907050"/>
    </linearGradient>
    <pattern id="stonePattern" patternUnits="userSpaceOnUse" width="30" height="25">
      <rect width="30" height="25" fill="#5A5A5A"/>
      <ellipse cx="8" cy="8" rx="7" ry="5" fill="#7A7A7A" stroke="#4A4A4A" stroke-width="0.5"/>
      <ellipse cx="22" cy="6" rx="6" ry="4" fill="#8A8A8A" stroke="#4A4A4A" stroke-width="0.5"/>
      <ellipse cx="15" cy="15" rx="8" ry="5" fill="#6A6A6A" stroke="#4A4A4A" stroke-width="0.5"/>
      <ellipse cx="5" cy="20" rx="5" ry="4" fill="#7A7A7A" stroke="#4A4A4A" stroke-width="0.5"/>
      <ellipse cx="25" cy="19" rx="5" ry="5" fill="#8A8A8A" stroke="#4A4A4A" stroke-width="0.5"/>
    </pattern>
    <pattern id="wireMesh" patternUnits="userSpaceOnUse" width="10" height="10">
      <path d="M0,5 L10,5 M5,0 L5,10" stroke="#A8A8A8" stroke-width="0.8" fill="none"/>
    </pattern>
  </defs>

  <text x="250" y="25" text-anchor="middle" font-family="Arial, sans-serif" font-size="16" font-weight="bold" fill="#333">Wall Framework Assembly</text>

  <path d="M60,320 L60,360 L380,360 L380,320 L60,320" fill="url(#stonePattern)" stroke="#A8A8A8" stroke-width="1.5"/>
  <path d="M60,320 L100,290 L420,290 L380,320 Z" fill="url(#stonePattern)" stroke="#A8A8A8" stroke-width="1.5"/>
  <path d="M380,320 L420,290 L420,330 L380,360 Z" fill="url(#stonePattern)" stroke="#A8A8A8" stroke-width="1.5"/>
  <path d="M60,320 L60,360 L380,360 L380,320 L60,320" fill="url(#wireMesh)" opacity="0.6"/>
  <path d="M60,320 L100,290 L420,290 L380,320 Z" fill="url(#wireMesh)" opacity="0.4"/>
  <path d="M380,320 L420,290 L420,330 L380,360 Z" fill="url(#wireMesh)" opacity="0.5"/>

  <g stroke="#A8A8A8" stroke-width="1" opacity="0.8">
    <line x1="60" y1="330" x2="380" y2="330"/>
    <line x1="60" y1="345" x2="380" y2="345"/>
    <line x1="100" y1="320" x2="100" y2="360"/>
    <line x1="160" y1="320" x2="160" y2="360"/>
    <line x1="220" y1="320" x2="220" y2="360"/>
    <line x1="280" y1="320" x2="280" y2="360"/>
    <line x1="340" y1="320" x2="340" y2="360"/>
  </g>

  <ellipse cx="130" cy="60" rx="8" ry="4" fill="#6B5335"/>
  <rect x="122" y="60" width="16" height="260" fill="url(#postGradient)"/>
  <ellipse cx="130" cy="320" rx="8" ry="4" fill="#5B4325"/>
  <rect x="122" y="320" width="16" height="40" fill="url(#postGradient)" opacity="0.5"/>

  <ellipse cx="230" cy="50" rx="9" ry="4.5" fill="#6B5335"/>
  <rect x="221" y="50" width="18" height="270" fill="url(#postGradient)"/>
  <ellipse cx="230" cy="320" rx="9" ry="4.5" fill="#5B4325"/>
  <rect x="221" y="320" width="18" height="40" fill="url(#postGradient)" opacity="0.5"/>

  <ellipse cx="330" cy="55" rx="10" ry="5" fill="#6B5335"/>
  <rect x="320" y="55" width="20" height="265" fill="url(#postGradient)"/>
  <ellipse cx="330" cy="320" rx="10" ry="5" fill="#5B4325"/>
  <rect x="320" y="320" width="20" height="40" fill="url(#postGradient)" opacity="0.5"/>

  <g>
    <path d="M70,280 Q100,278 122,280" stroke="#A08060" stroke-width="7" fill="none" stroke-linecap="round"/>
    <path d="M138,282 Q185,285 221,282" stroke="#A08060" stroke-width="7" fill="none" stroke-linecap="round"/>
    <path d="M239,280 Q280,278 320,280" stroke="#A08060" stroke-width="7" fill="none" stroke-linecap="round"/>
    <path d="M340,282 Q380,285 430,282" stroke="#A08060" stroke-width="7" fill="none" stroke-linecap="round"/>
  </g>
  <g>
    <path d="M70,252 Q100,254 122,252" stroke="#A08060" stroke-width="6" fill="none" stroke-linecap="round"/>
    <path d="M138,250 Q185,248 221,250" stroke="#A08060" stroke-width="6" fill="none" stroke-linecap="round"/>
    <path d="M239,252 Q280,254 320,252" stroke="#A08060" stroke-width="6" fill="none" stroke-linecap="round"/>
    <path d="M340,250 Q380,248 430,250" stroke="#A08060" stroke-width="6" fill="none" stroke-linecap="round"/>
  </g>
  <g>
    <path d="M70,222 Q100,220 122,222" stroke="#A08060" stroke-width="7" fill="none" stroke-linecap="round"/>
    <path d="M138,224 Q185,227 221,224" stroke="#A08060" stroke-width="7" fill="none" stroke-linecap="round"/>
    <path d="M239,222 Q280,220 320,222" stroke="#A08060" stroke-width="7" fill="none" stroke-linecap="round"/>
    <path d="M340,224 Q380,227 430,224" stroke="#A08060" stroke-width="7" fill="none" stroke-linecap="round"/>
  </g>
  <g>
    <path d="M70,192 Q100,194 122,192" stroke="#A08060" stroke-width="6" fill="none" stroke-linecap="round"/>
    <path d="M138,190 Q185,188 221,190" stroke="#A08060" stroke-width="6" fill="none" stroke-linecap="round"/>
    <path d="M239,192 Q280,194 320,192" stroke="#A08060" stroke-width="6" fill="none" stroke-linecap="round"/>
    <path d="M340,190 Q380,188 430,190" stroke="#A08060" stroke-width="6" fill="none" stroke-linecap="round"/>
  </g>
  <g>
    <path d="M70,162 Q100,160 122,162" stroke="#A08060" stroke-width="7" fill="none" stroke-linecap="round"/>
    <path d="M138,164 Q185,167 221,164" stroke="#A08060" stroke-width="7" fill="none" stroke-linecap="round"/>
    <path d="M239,162 Q280,160 320,162" stroke="#A08060" stroke-width="7" fill="none" stroke-linecap="round"/>
    <path d="M340,164 Q380,167 430,164" stroke="#A08060" stroke-width="7" fill="none" stroke-linecap="round"/>
  </g>
  <g>
    <path d="M70,132 Q100,134 122,132" stroke="#A08060" stroke-width="6" fill="none" stroke-linecap="round"/>
    <path d="M138,130 Q185,128 221,130" stroke="#A08060" stroke-width="6" fill="none" stroke-linecap="round"/>
    <path d="M239,132 Q280,134 320,132" stroke="#A08060" stroke-width="6" fill="none" stroke-linecap="round"/>
    <path d="M340,130 Q380,128 430,130" stroke="#A08060" stroke-width="6" fill="none" stroke-linecap="round"/>
  </g>
  <g>
    <path d="M70,102 Q100,100 122,102" stroke="#A08060" stroke-width="7" fill="none" stroke-linecap="round"/>
    <path d="M138,104 Q185,107 221,104" stroke="#A08060" stroke-width="7" fill="none" stroke-linecap="round"/>
    <path d="M239,102 Q280,100 320,102" stroke="#A08060" stroke-width="7" fill="none" stroke-linecap="round"/>
    <path d="M340,104 Q380,107 430,104" stroke="#A08060" stroke-width="7" fill="none" stroke-linecap="round"/>
  </g>

  <g stroke="#A8A8A8" stroke-width="1.2" fill="none">
    <ellipse cx="130" cy="280" rx="12" ry="6"/>
    <ellipse cx="130" cy="222" rx="12" ry="6"/>
    <ellipse cx="130" cy="162" rx="12" ry="6"/>
    <ellipse cx="130" cy="102" rx="12" ry="6"/>
  </g>
  <g stroke="#A8A8A8" stroke-width="1.2" fill="none">
    <ellipse cx="230" cy="280" rx="13" ry="6"/>
    <ellipse cx="230" cy="222" rx="13" ry="6"/>
    <ellipse cx="230" cy="162" rx="13" ry="6"/>
    <ellipse cx="230" cy="102" rx="13" ry="6"/>
  </g>
  <g stroke="#A8A8A8" stroke-width="1.2" fill="none">
    <ellipse cx="330" cy="280" rx="14" ry="6"/>
    <ellipse cx="330" cy="222" rx="14" ry="6"/>
    <ellipse cx="330" cy="162" rx="14" ry="6"/>
    <ellipse cx="330" cy="102" rx="14" ry="6"/>
  </g>

  <g font-family="Arial, sans-serif" font-size="9" fill="#333">
    <line x1="360" y1="140" x2="360" y2="180" stroke="#333" stroke-width="0.5"/>
    <line x1="355" y1="140" x2="365" y2="140" stroke="#333" stroke-width="0.5"/>
    <line x1="355" y1="180" x2="365" y2="180" stroke="#333" stroke-width="0.5"/>
    <text x="370" y="163" font-size="8">15-20cm</text>
    <text x="370" y="173" font-size="7" fill="#666">post dia.</text>
    <line x1="450" y1="162" x2="450" y2="192" stroke="#333" stroke-width="0.5"/>
    <line x1="445" y1="162" x2="455" y2="162" stroke="#333" stroke-width="0.5"/>
    <line x1="445" y1="192" x2="455" y2="192" stroke="#333" stroke-width="0.5"/>
    <text x="456" y="180" font-size="8">25-30cm</text>
    <text x="456" y="189" font-size="7" fill="#666">spacing</text>
    <text x="75" y="242" font-size="7" fill="#666">5-8cm dia.</text>
    <line x1="50" y1="320" x2="50" y2="360" stroke="#333" stroke-width="0.5"/>
    <line x1="45" y1="320" x2="55" y2="320" stroke="#333" stroke-width="0.5"/>
    <line x1="45" y1="360" x2="55" y2="360" stroke="#333" stroke-width="0.5"/>
    <text x="15" y="343" font-size="8">40cm</text>
    <text x="10" y="353" font-size="7" fill="#666">embed</text>
  </g>

  <g transform="translate(385, 45)">
    <rect x="0" y="0" width="105" height="75" fill="white" stroke="#ccc" stroke-width="0.5" rx="3"/>
    <text x="52" y="12" text-anchor="middle" font-family="Arial, sans-serif" font-size="8" font-weight="bold" fill="#333">Legend</text>
    <rect x="8" y="18" width="20" height="8" fill="#8B7355"/>
    <text x="32" y="25" font-family="Arial, sans-serif" font-size="7" fill="#333">Eucalyptus posts</text>
    <line x1="8" y1="35" x2="28" y2="35" stroke="#A08060" stroke-width="4" stroke-linecap="round"/>
    <text x="32" y="38" font-family="Arial, sans-serif" font-size="7" fill="#333">Wattle poles</text>
    <ellipse cx="18" cy="48" rx="8" ry="4" fill="none" stroke="#A8A8A8" stroke-width="1.5"/>
    <text x="32" y="51" font-family="Arial, sans-serif" font-size="7" fill="#333">Wire lashing</text>
    <rect x="8" y="58" width="20" height="10" fill="#7A7A7A" stroke="#A8A8A8" stroke-width="0.5"/>
    <text x="32" y="67" font-family="Arial, sans-serif" font-size="7" fill="#333">Gabion foundation</text>
  </g>

  <text x="250" y="390" text-anchor="middle" font-family="Arial, sans-serif" font-size="9" fill="#666">Isometric cutaway view showing wattle-and-post construction on gabion base</text>
</svg>