<svg xmlns="http://www.w3.org/2000/svg" viewBox="0 0 550 400">
  <title>Lean-to Roof Structure (Terraced BioDome)</title>

  <defs>
    <linearGradient id="stoneGrad" x1="0%" y1="0%" x2="100%" y2="0%">
      <stop offset="0%" style="stop-color:#6A6A6A"/>
      <stop offset="50%" style="stop-color:#7A7A7A"/>
      <stop offset="100%" style="stop-color:#5A5A5A"/>
    </linearGradient>
    <linearGradient id="cobGrad" x1="0%" y1="0%" x2="100%" y2="0%">
      <stop offset="0%" style="stop-color:#B89217"/>
      <stop offset="50%" style="stop-color:#C9A227"/>
      <stop offset="100%" style="stop-color:#A88207"/>
    </linearGradient>
    <linearGradient id="timberGrad" x1="0%" y1="0%" x2="0%" y2="100%">
      <stop offset="0%" style="stop-color:#9B8365"/>
      <stop offset="100%" style="stop-color:#7B6345"/>
    </linearGradient>
  </defs>

  <text x="275" y="25" font-family="Arial, sans-serif" font-size="14" font-weight="bold" text-anchor="middle" fill="#333">Lean-to Roof Structure (Terraced BioDome)</text>

  <polygon points="380,60 380,200 320,240 320,100" fill="url(#stoneGrad)" stroke="#555" stroke-width="1"/>
  <polygon points="380,60 320,100 180,100 240,60" fill="#8A8A8A" stroke="#555" stroke-width="1"/>
  <polygon points="240,60 180,100 180,240 240,200" fill="#6A6A6A" stroke="#555" stroke-width="1"/>

  <g stroke="#666" stroke-width="0.5" opacity="0.6">
    <line x1="330" y1="120" x2="370" y2="90"/>
    <line x1="325" y1="150" x2="375" y2="115"/>
    <line x1="330" y1="180" x2="375" y2="145"/>
    <line x1="190" y1="120" x2="230" y2="90"/>
    <line x1="185" y1="155" x2="235" y2="120"/>
    <line x1="190" y1="190" x2="235" y2="155"/>
  </g>

  <path d="M 100,320 Q 100,280 140,260 L 180,240 L 180,310 Q 140,320 100,320 Z" fill="url(#cobGrad)" stroke="#8B7217" stroke-width="1"/>
  <path d="M 420,320 Q 420,280 380,260 L 340,240 L 340,310 Q 380,320 420,320 Z" fill="url(#cobGrad)" stroke="#8B7217" stroke-width="1"/>
  <path d="M 180,310 L 180,240 Q 260,210 340,240 L 340,310 Q 260,340 180,310 Z" fill="#C9A227" stroke="#8B7217" stroke-width="1"/>

  <path d="M 175,240 Q 260,205 345,240 L 340,235 Q 260,200 180,235 Z" fill="#8B7355" stroke="#6B5335" stroke-width="1"/>
  <path d="M 175,240 L 180,235 L 180,225 L 175,230 Z" fill="url(#timberGrad)" stroke="#6B5335" stroke-width="0.5"/>
  <path d="M 345,240 L 340,235 L 340,225 L 345,230 Z" fill="url(#timberGrad)" stroke="#6B5335" stroke-width="0.5"/>
  <path d="M 180,225 Q 260,190 340,225 L 340,235 Q 260,200 180,235 Z" fill="#9B8365" stroke="#6B5335" stroke-width="0.5"/>

  <polygon points="195,225 200,222 250,95 245,98" fill="url(#timberGrad)" stroke="#6B5335" stroke-width="1"/>
  <polygon points="230,215 235,212 280,90 275,93" fill="url(#timberGrad)" stroke="#6B5335" stroke-width="1"/>
  <polygon points="265,210 270,207 310,88 305,91" fill="url(#timberGrad)" stroke="#6B5335" stroke-width="1"/>
  <polygon points="300,212 305,209 340,90 335,93" fill="url(#timberGrad)" stroke="#6B5335" stroke-width="1"/>
  <polygon points="335,218 340,215 370,95 365,98" fill="url(#timberGrad)" stroke="#6B5335" stroke-width="1"/>

  <g fill="#6B5335" stroke="#5B4325" stroke-width="0.5">
    <polygon points="195,225 200,222 202,227 197,230"/>
    <polygon points="230,215 235,212 237,217 232,220"/>
    <polygon points="265,210 270,207 272,212 267,215"/>
    <polygon points="300,212 305,209 307,214 302,217"/>
    <polygon points="335,218 340,215 342,220 337,223"/>
  </g>

  <polygon points="190,190 195,187 375,155 370,158" fill="#9B8365" stroke="#6B5335" stroke-width="0.8"/>
  <polygon points="190,190 190,185 195,182 195,187" fill="#7B6345" stroke="#6B5335" stroke-width="0.5"/>
  <polygon points="210,155 215,152 365,125 360,128" fill="#9B8365" stroke="#6B5335" stroke-width="0.8"/>
  <polygon points="210,155 210,150 215,147 215,152" fill="#7B6345" stroke="#6B5335" stroke-width="0.5"/>
  <polygon points="230,120 235,117 355,95 350,98" fill="#9B8365" stroke="#6B5335" stroke-width="0.8"/>
  <polygon points="230,120 230,115 235,112 235,117" fill="#7B6345" stroke="#6B5335" stroke-width="0.5"/>

  <g transform="translate(440, 180)">
    <path d="M 0,50 L 50,50 L 50,50" stroke="#333" stroke-width="1" fill="none"/>
    <path d="M 0,50 L 43,-25" stroke="#333" stroke-width="1" fill="none"/>
    <path d="M 25,50 Q 30,35 35,28" stroke="#333" stroke-width="1" fill="none"/>
    <text x="45" y="45" font-family="Arial, sans-serif" font-size="10" fill="#333">30°</text>
  </g>

  <g transform="translate(80, 270)">
    <line x1="0" y1="0" x2="0" y2="50" stroke="#666" stroke-width="1"/>
    <line x1="-5" y1="0" x2="5" y2="0" stroke="#666" stroke-width="1"/>
    <line x1="-5" y1="50" x2="5" y2="50" stroke="#666" stroke-width="1"/>
    <text x="-10" y="30" font-family="Arial, sans-serif" font-size="9" fill="#666" text-anchor="end">3.0m</text>
  </g>

  <g transform="translate(400, 60)">
    <line x1="0" y1="0" x2="0" y2="140" stroke="#666" stroke-width="1"/>
    <line x1="-5" y1="0" x2="5" y2="0" stroke="#666" stroke-width="1"/>
    <line x1="-5" y1="140" x2="5" y2="140" stroke="#666" stroke-width="1"/>
    <text x="15" y="75" font-family="Arial, sans-serif" font-size="9" fill="#666">5.0m</text>
  </g>

  <g transform="translate(20, 350)">
    <rect x="0" y="0" width="15" height="10" fill="#7A7A7A" stroke="#555" stroke-width="0.5"/>
    <text x="20" y="9" font-family="Arial, sans-serif" font-size="8" fill="#333">Stone Wall</text>
    <rect x="80" y="0" width="15" height="10" fill="#C9A227" stroke="#8B7217" stroke-width="0.5"/>
    <text x="100" y="9" font-family="Arial, sans-serif" font-size="8" fill="#333">Cob Wall</text>
    <rect x="160" y="0" width="15" height="10" fill="#8B7355" stroke="#6B5335" stroke-width="0.5"/>
    <text x="180" y="9" font-family="Arial, sans-serif" font-size="8" fill="#333">Timber (Eucalyptus)</text>
  </g>

  <text x="280" y="75" font-family="Arial, sans-serif" font-size="8" fill="#555" text-anchor="middle">RIDGE (Stone Terrace Wall)</text>
  <text x="260" y="365" font-family="Arial, sans-serif" font-size="8" fill="#555" text-anchor="middle">EAVES (Ring Beam on Cob Wall)</text>
</svg>