<svg xmlns="http://www.w3.org/2000/svg" viewBox="0 0 400 350">
  <title>Window Installation Detail</title>
  <defs>
    <pattern id="cobTexture" patternUnits="userSpaceOnUse" width="20" height="20">
      <rect width="20" height="20" fill="#C9A227"/>
      <circle cx="5" cy="5" r="1.5" fill="#B8921F" opacity="0.5"/>
      <circle cx="15" cy="12" r="1" fill="#D4AC2B" opacity="0.4"/>
      <circle cx="8" cy="17" r="1.2" fill="#B8921F" opacity="0.3"/>
    </pattern>
    <linearGradient id="glassGradient" x1="0%" y1="0%" x2="100%" y2="100%">
      <stop offset="0%" style="stop-color:#D0E8F5;stop-opacity:0.9"/>
      <stop offset="50%" style="stop-color:#B8D4E8;stop-opacity:0.85"/>
      <stop offset="100%" style="stop-color:#A0C8E0;stop-opacity:0.9"/>
    </linearGradient>
    <pattern id="woodGrain" patternUnits="userSpaceOnUse" width="8" height="40">
      <rect width="8" height="40" fill="#8B7355"/>
      <line x1="2" y1="0" x2="2" y2="40" stroke="#7A6248" stroke-width="0.5" opacity="0.4"/>
      <line x1="5" y1="0" x2="5" y2="40" stroke="#9C846A" stroke-width="0.3" opacity="0.3"/>
    </pattern>
  </defs>
  <text x="200" y="25" font-family="Arial, sans-serif" font-size="14" font-weight="bold" text-anchor="middle" fill="#333">Window Installation Detail</text>
  <text x="200" y="40" font-family="Arial, sans-serif" font-size="10" text-anchor="middle" fill="#666">Cob Wall Cutaway View</text>
  <text x="60" y="60" font-family="Arial, sans-serif" font-size="9" fill="#555" text-anchor="middle">EXTERIOR</text>
  <text x="340" y="60" font-family="Arial, sans-serif" font-size="9" fill="#555" text-anchor="middle">INTERIOR</text>
  <polygon points="180,70 380,70 380,300 180,300" fill="url(#cobTexture)" stroke="#A88A1F" stroke-width="1"/>
  <polygon points="20,90 180,70 180,300 20,320" fill="url(#cobTexture)" stroke="#A88A1F" stroke-width="1"/>
  <polygon points="20,90 180,70 380,70 220,90" fill="#D4AC2B" stroke="#A88A1F" stroke-width="1"/>
  <polygon points="20,90 20,320 30,318 30,92" fill="#E8DCC8" stroke="#D4CDB8" stroke-width="0.5"/>
  <polygon points="370,70 380,70 380,300 370,300" fill="#E8DCC8" stroke="#D4CDB8" stroke-width="0.5"/>
  <polygon points="70,130 200,115 200,260 70,280" fill="#F5F0E6" stroke="#A88A1F" stroke-width="1"/>
  <polygon points="70,130 200,115 320,115 190,130" fill="#DCCFB8" stroke="#A88A1F" stroke-width="0.5"/>
  <polygon points="70,280 200,260 320,260 190,280" fill="#D4C7A8" stroke="#A88A1F" stroke-width="0.5"/>
  <polygon points="75,135 195,120 195,255 75,275" fill="#E8DCC8" stroke="#D4CDB8" stroke-width="0.5"/>
  <rect x="68" y="125" width="18" height="160" fill="url(#woodGrain)" stroke="#6B5A45" stroke-width="1"/>
  <rect x="185" y="110" width="18" height="155" fill="url(#woodGrain)" stroke="#6B5A45" stroke-width="1"/>
  <polygon points="68,125 206,108 206,118 68,135" fill="url(#woodGrain)" stroke="#6B5A45" stroke-width="1"/>
  <polygon points="68,275 206,255 206,265 68,285" fill="url(#woodGrain)" stroke="#6B5A45" stroke-width="1"/>
  <rect x="72" y="125" width="12" height="8" fill="#7A6248" stroke="#5A4A38" stroke-width="0.5"/>
  <rect x="75" y="127" width="6" height="4" fill="#6B5A45"/>
  <rect x="74" y="133" width="8" height="12" fill="#5A4A38" stroke="#4A3A28" stroke-width="0.5"/>
  <rect x="75" y="134" width="6" height="10" fill="#8B7355" stroke="#6B5A45" stroke-width="0.3"/>
  <circle cx="78" cy="140" r="1.5" fill="#4A3A28"/>
  <line x1="90" y1="135" x2="115" y2="105" stroke="#666" stroke-width="0.5" stroke-dasharray="2,2"/>
  <text x="117" y="103" font-family="Arial, sans-serif" font-size="7" fill="#555">Mortise &amp; Tenon</text>
  <text x="117" y="111" font-family="Arial, sans-serif" font-size="7" fill="#555">Joint (Chestnut)</text>
  <polygon points="88,140 200,125 200,250 88,268" fill="url(#glassGradient)" stroke="#8ABED8" stroke-width="1"/>
  <line x1="100" y1="145" x2="95" y2="200" stroke="#FFFFFF" stroke-width="1.5" opacity="0.4"/>
  <line x1="180" y1="130" x2="175" y2="180" stroke="#FFFFFF" stroke-width="1" opacity="0.3"/>
  <polygon points="200,260 320,260 330,270 210,270" fill="#D4C7A8" stroke="#A88A1F" stroke-width="0.5"/>
  <polygon points="205,261 315,261 320,268 210,268" fill="#E8DCC8" stroke="#D4CDB8" stroke-width="0.3"/>
  <line x1="68" y1="295" x2="205" y2="295" stroke="#333" stroke-width="0.75"/>
  <line x1="68" y1="290" x2="68" y2="300" stroke="#333" stroke-width="0.75"/>
  <line x1="205" y1="290" x2="205" y2="300" stroke="#333" stroke-width="0.75"/>
  <text x="136" y="308" font-family="Arial, sans-serif" font-size="9" text-anchor="middle" fill="#333">40-50 cm</text>
  <text x="136" y="318" font-family="Arial, sans-serif" font-size="7" text-anchor="middle" fill="#666">(Reveal Depth)</text>
  <rect x="255" y="145" width="12" height="12" fill="url(#woodGrain)" stroke="#6B5A45" stroke-width="0.5"/>
  <text x="272" y="155" font-family="Arial, sans-serif" font-size="8" fill="#555">Chestnut Frame</text>
  <rect x="255" y="162" width="12" height="12" fill="url(#cobTexture)" stroke="#A88A1F" stroke-width="0.5"/>
  <text x="272" y="172" font-family="Arial, sans-serif" font-size="8" fill="#555">Cob Wall</text>
  <rect x="255" y="179" width="12" height="12" fill="#E8DCC8" stroke="#D4CDB8" stroke-width="0.5"/>
  <text x="272" y="189" font-family="Arial, sans-serif" font-size="8" fill="#555">Lime Render</text>
  <rect x="255" y="196" width="12" height="12" fill="url(#glassGradient)" stroke="#8ABED8" stroke-width="0.5"/>
  <text x="272" y="206" font-family="Arial, sans-serif" font-size="8" fill="#555">Glass Pane</text>
  <polygon points="15,200 25,195 25,205" fill="#666"/>
  <text x="28" y="203" font-family="Arial, sans-serif" font-size="7" fill="#666">View</text>
  <line x1="280" y1="265" x2="320" y2="240" stroke="#666" stroke-width="0.5" stroke-dasharray="2,2"/>
  <text x="295" y="237" font-family="Arial, sans-serif" font-size="7" fill="#555">Window Seat</text>
</svg>