<svg xmlns="http://www.w3.org/2000/svg" viewBox="0 0 550 400">
  <title>Solar Pod - Building Section</title>
  <rect width="550" height="400" fill="#f5f5f0"/>
  <text x="275" y="25" text-anchor="middle" font-family="Arial, sans-serif" font-size="16" font-weight="bold" fill="#333">Solar Pod - Building Section</text>
  <rect x="30" y="340" width="490" height="30" fill="#8B6914"/>
  <line x1="30" y1="340" x2="520" y2="340" stroke="#5C4A0A" stroke-width="2"/>
  <rect x="60" y="325" width="300" height="15" fill="#777"/>
  <rect x="60" y="310" width="300" height="15" fill="#999"/>
  <text x="210" y="355" text-anchor="middle" font-family="Arial, sans-serif" font-size="8" fill="#fff">FOUNDATION</text>
  <rect x="60" y="160" width="25" height="150" fill="#C9A227"/>
  <text x="72" y="240" text-anchor="middle" font-family="Arial, sans-serif" font-size="7" fill="#333" transform="rotate(-90 72 240)">COB WALL</text>
  <rect x="335" y="160" width="25" height="150" fill="#C9A227"/>
  <text x="347" y="240" text-anchor="middle" font-family="Arial, sans-serif" font-size="7" fill="#333" transform="rotate(-90 347 240)">COB WALL</text>
  <rect x="360" y="100" width="45" height="210" fill="#D4C080"/>
  <line x1="365" y1="120" x2="400" y2="120" stroke="#BBA060" stroke-width="1"/>
  <line x1="365" y1="150" x2="400" y2="150" stroke="#BBA060" stroke-width="1"/>
  <line x1="365" y1="180" x2="400" y2="180" stroke="#BBA060" stroke-width="1"/>
  <line x1="365" y1="210" x2="400" y2="210" stroke="#BBA060" stroke-width="1"/>
  <line x1="365" y1="240" x2="400" y2="240" stroke="#BBA060" stroke-width="1"/>
  <line x1="365" y1="270" x2="400" y2="270" stroke="#BBA060" stroke-width="1"/>
  <line x1="365" y1="300" x2="400" y2="300" stroke="#BBA060" stroke-width="1"/>
  <text x="382" y="200" text-anchor="middle" font-family="Arial, sans-serif" font-size="6" fill="#333" transform="rotate(-90 382 200)">STRAW BALE R-30</text>
  <rect x="85" y="160" width="250" height="150" fill="#FFF8DC" opacity="0.5"/>
  <text x="180" y="250" text-anchor="middle" font-family="Arial, sans-serif" font-size="10" fill="#555">MAIN LIVING SPACE</text>
  <rect x="200" y="155" width="135" height="10" fill="#8B7355"/>
  <text x="267" y="162" text-anchor="middle" font-family="Arial, sans-serif" font-size="6" fill="#fff">LOFT FLOOR</text>
  <rect x="200" y="100" width="135" height="55" fill="#FFF0E0" opacity="0.6"/>
  <rect x="265" y="100" width="5" height="55" fill="#8B7355"/>
  <text x="230" y="130" text-anchor="middle" font-family="Arial, sans-serif" font-size="7" fill="#555">SLEEP 1</text>
  <text x="302" y="130" text-anchor="middle" font-family="Arial, sans-serif" font-size="7" fill="#555">SLEEP 2</text>
  <line x1="180" y1="165" x2="205" y2="310" stroke="#8B7355" stroke-width="3"/>
  <line x1="190" y1="165" x2="215" y2="310" stroke="#8B7355" stroke-width="3"/>
  <line x1="181" y1="180" x2="192" y2="180" stroke="#8B7355" stroke-width="2"/>
  <line x1="183" y1="200" x2="195" y2="200" stroke="#8B7355" stroke-width="2"/>
  <line x1="185" y1="220" x2="198" y2="220" stroke="#8B7355" stroke-width="2"/>
  <line x1="188" y1="240" x2="201" y2="240" stroke="#8B7355" stroke-width="2"/>
  <line x1="190" y1="260" x2="205" y2="260" stroke="#8B7355" stroke-width="2"/>
  <line x1="193" y1="280" x2="208" y2="280" stroke="#8B7355" stroke-width="2"/>
  <line x1="196" y1="300" x2="212" y2="300" stroke="#8B7355" stroke-width="2"/>
  <text x="225" y="240" font-family="Arial, sans-serif" font-size="7" fill="#666">LADDER</text>
  <rect x="405" y="55" width="70" height="95" fill="#87CEEB" stroke="#8B7355" stroke-width="3"/>
  <line x1="440" y1="55" x2="440" y2="150" stroke="#8B7355" stroke-width="2"/>
  <line x1="405" y1="100" x2="475" y2="100" stroke="#8B7355" stroke-width="2"/>
  <text x="440" y="175" text-anchor="middle" font-family="Arial, sans-serif" font-size="7" fill="#333">CLERESTORY</text>
  <text x="440" y="183" text-anchor="middle" font-family="Arial, sans-serif" font-size="6" fill="#333">5m x 2.3m</text>
  <polygon points="60,160 60,150 360,50 360,100" fill="#8B7355"/>
  <polygon points="62,148 62,140 358,40 358,48" fill="#2A3F5F"/>
  <polygon points="62,138 62,130 358,30 358,38" fill="#2A3F5F"/>
  <line x1="120" y1="125" x2="120" y2="145" stroke="#1A2F4F" stroke-width="1"/>
  <line x1="180" y1="110" x2="180" y2="130" stroke="#1A2F4F" stroke-width="1"/>
  <line x1="240" y1="95" x2="240" y2="115" stroke="#1A2F4F" stroke-width="1"/>
  <line x1="300" y1="80" x2="300" y2="100" stroke="#1A2F4F" stroke-width="1"/>
  <text x="150" y="115" font-family="Arial, sans-serif" font-size="7" fill="#fff" transform="rotate(-18 150 115)">SOLAR PANELS</text>
  <rect x="200" y="90" width="160" height="10" fill="#8B7355"/>
  <rect x="200" y="80" width="200" height="12" fill="#4A6E4A"/>
  <circle cx="210" cy="86" r="3" fill="#5A8E5A"/>
  <circle cx="225" cy="84" r="4" fill="#3A5E3A"/>
  <circle cx="245" cy="86" r="3" fill="#5A8E5A"/>
  <circle cx="260" cy="85" r="4" fill="#4A7E4A"/>
  <circle cx="280" cy="86" r="3" fill="#3A5E3A"/>
  <circle cx="300" cy="84" r="4" fill="#5A8E5A"/>
  <circle cx="320" cy="86" r="3" fill="#4A7E4A"/>
  <circle cx="340" cy="85" r="4" fill="#3A5E3A"/>
  <circle cx="360" cy="86" r="3" fill="#5A8E5A"/>
  <circle cx="380" cy="84" r="4" fill="#4A7E4A"/>
  <text x="300" y="75" text-anchor="middle" font-family="Arial, sans-serif" font-size="7" fill="#333">GREEN ROOF / TERRACE</text>
  <rect x="405" y="92" width="60" height="8" fill="#8B7355"/>
  <line x1="60" y1="370" x2="360" y2="370" stroke="#333" stroke-width="1"/>
  <line x1="60" y1="365" x2="60" y2="375" stroke="#333" stroke-width="1"/>
  <line x1="360" y1="365" x2="360" y2="375" stroke="#333" stroke-width="1"/>
  <text x="210" y="380" text-anchor="middle" font-family="Arial, sans-serif" font-size="9" fill="#333">5.0m</text>
  <line x1="360" y1="320" x2="405" y2="320" stroke="#333" stroke-width="1"/>
  <line x1="360" y1="315" x2="360" y2="325" stroke="#333" stroke-width="1"/>
  <line x1="405" y1="315" x2="405" y2="325" stroke="#333" stroke-width="1"/>
  <text x="382" y="335" text-anchor="middle" font-family="Arial, sans-serif" font-size="7" fill="#333">450mm</text>
  <line x1="45" y1="160" x2="45" y2="310" stroke="#333" stroke-width="1"/>
  <line x1="40" y1="160" x2="50" y2="160" stroke="#333" stroke-width="1"/>
  <line x1="40" y1="310" x2="50" y2="310" stroke="#333" stroke-width="1"/>
  <text x="35" y="240" text-anchor="middle" font-family="Arial, sans-serif" font-size="8" fill="#333" transform="rotate(-90 35 240)">3.0m</text>
  <text x="210" y="295" text-anchor="middle" font-family="Arial, sans-serif" font-size="8" fill="#666">(4.1m depth - into page)</text>
  <path d="M 80 145 A 30 30 0 0 1 100 135" fill="none" stroke="#333" stroke-width="1"/>
  <text x="115" y="130" font-family="Arial, sans-serif" font-size="7" fill="#333">30°</text>
  <line x1="520" y1="30" x2="520" y2="310" stroke="#333" stroke-width="1"/>
  <line x1="515" y1="30" x2="525" y2="30" stroke="#333" stroke-width="1"/>
  <line x1="515" y1="310" x2="525" y2="310" stroke="#333" stroke-width="1"/>
  <text x="530" y="175" text-anchor="middle" font-family="Arial, sans-serif" font-size="8" fill="#333" transform="rotate(-90 530 175)">~5.5m total</text>
  <rect x="30" y="45" width="120" height="85" fill="#fff" stroke="#ccc" stroke-width="1"/>
  <text x="35" y="57" font-family="Arial, sans-serif" font-size="7" font-weight="bold" fill="#333">LEGEND:</text>
  <rect x="35" y="62" width="12" height="8" fill="#C9A227"/>
  <text x="50" y="69" font-family="Arial, sans-serif" font-size="6" fill="#333">Cob Walls</text>
  <rect x="35" y="74" width="12" height="8" fill="#D4C080"/>
  <text x="50" y="81" font-family="Arial, sans-serif" font-size="6" fill="#333">Straw Bale (R-30)</text>
  <rect x="35" y="86" width="12" height="8" fill="#8B7355"/>
  <text x="50" y="93" font-family="Arial, sans-serif" font-size="6" fill="#333">Timber Structure</text>
  <rect x="35" y="98" width="12" height="8" fill="#2A3F5F"/>
  <text x="50" y="105" font-family="Arial, sans-serif" font-size="6" fill="#333">Solar Panels</text>
  <rect x="35" y="110" width="12" height="8" fill="#4A6E4A"/>
  <text x="50" y="117" font-family="Arial, sans-serif" font-size="6" fill="#333">Living Roof</text>
  <text x="50" y="200" font-family="Arial, sans-serif" font-size="9" font-weight="bold" fill="#333">SOUTH</text>
  <text x="460" y="200" font-family="Arial, sans-serif" font-size="9" font-weight="bold" fill="#333">NORTH</text>
  <text x="275" y="395" text-anchor="middle" font-family="Arial, sans-serif" font-size="8" font-style="italic" fill="#666">East-West Section Looking North</text>
</svg>