<svg xmlns="http://www.w3.org/2000/svg" viewBox="0 0 400 450">
  <title>Cob Wall Building - Lift Sequence</title>
  <rect width="400" height="450" fill="white"/>
  <text x="200" y="30" font-family="Arial, sans-serif" font-size="16" font-weight="bold" text-anchor="middle" fill="#333">Cob Wall Building - Lift Sequence</text>

  <rect x="60" y="400" width="280" height="30" fill="#666" stroke="#444" stroke-width="1"/>
  <text x="200" y="420" font-family="Arial, sans-serif" font-size="10" text-anchor="middle" fill="white">Foundation</text>

  <rect x="65" y="60" width="12" height="340" fill="#8B7355" stroke="#6B5335" stroke-width="1"/>
  <rect x="85" y="60" width="8" height="340" fill="#8B7355" stroke="#6B5335" stroke-width="1"/>
  <rect x="323" y="60" width="12" height="340" fill="#8B7355" stroke="#6B5335" stroke-width="1"/>
  <rect x="307" y="60" width="8" height="340" fill="#8B7355" stroke="#6B5335" stroke-width="1"/>

  <rect x="95" y="320" width="210" height="80" fill="#C9A227" stroke="#A88217" stroke-width="1"/>
  <line x1="100" y1="340" x2="300" y2="342" stroke="#B89217" stroke-width="1" opacity="0.5"/>
  <line x1="100" y1="360" x2="300" y2="358" stroke="#B89217" stroke-width="1" opacity="0.5"/>
  <line x1="100" y1="380" x2="300" y2="382" stroke="#B89217" stroke-width="1" opacity="0.5"/>

  <ellipse cx="95" cy="360" rx="6" ry="8" fill="#8B7355" stroke="#6B5335" stroke-width="1"/>
  <rect x="95" y="352" width="210" height="16" fill="#8B7355" stroke="#6B5335" stroke-width="1"/>
  <ellipse cx="305" cy="360" rx="6" ry="8" fill="#7B6345" stroke="#6B5335" stroke-width="1"/>

  <circle cx="130" cy="320" r="6" fill="#A88217" stroke="#886207" stroke-width="1"/>
  <circle cx="170" cy="318" r="5" fill="#A88217" stroke="#886207" stroke-width="1"/>
  <circle cx="215" cy="320" r="6" fill="#A88217" stroke="#886207" stroke-width="1"/>
  <circle cx="260" cy="319" r="5" fill="#A88217" stroke="#886207" stroke-width="1"/>
  <circle cx="295" cy="320" r="5" fill="#A88217" stroke="#886207" stroke-width="1"/>

  <rect x="95" y="240" width="210" height="80" fill="#D4AD32" stroke="#A88217" stroke-width="1"/>
  <line x1="100" y1="260" x2="300" y2="258" stroke="#C49D22" stroke-width="1" opacity="0.5"/>
  <line x1="100" y1="280" x2="300" y2="282" stroke="#C49D22" stroke-width="1" opacity="0.5"/>

  <ellipse cx="95" cy="275" rx="6" ry="7" fill="#8B7355" stroke="#6B5335" stroke-width="1"/>
  <rect x="95" y="268" width="210" height="14" fill="#8B7355" stroke="#6B5335" stroke-width="1"/>
  <ellipse cx="305" cy="275" rx="6" ry="7" fill="#7B6345" stroke="#6B5335" stroke-width="1"/>

  <circle cx="120" cy="240" r="5" fill="#B89D22" stroke="#988207" stroke-width="1"/>
  <circle cx="160" cy="239" r="6" fill="#B89D22" stroke="#988207" stroke-width="1"/>
  <circle cx="200" cy="240" r="5" fill="#B89D22" stroke="#988207" stroke-width="1"/>
  <circle cx="245" cy="241" r="6" fill="#B89D22" stroke="#988207" stroke-width="1"/>
  <circle cx="285" cy="240" r="5" fill="#B89D22" stroke="#988207" stroke-width="1"/>

  <rect x="95" y="160" width="210" height="80" fill="#BF9720" stroke="#A88217" stroke-width="1"/>
  <line x1="100" y1="180" x2="300" y2="182" stroke="#AF8710" stroke-width="1" opacity="0.5"/>
  <line x1="100" y1="200" x2="300" y2="198" stroke="#AF8710" stroke-width="1" opacity="0.5"/>
  <line x1="100" y1="220" x2="300" y2="222" stroke="#AF8710" stroke-width="1" opacity="0.5"/>

  <ellipse cx="95" cy="195" rx="6" ry="7" fill="#8B7355" stroke="#6B5335" stroke-width="1"/>
  <rect x="95" y="188" width="210" height="14" fill="#8B7355" stroke="#6B5335" stroke-width="1"/>
  <ellipse cx="305" cy="195" rx="6" ry="7" fill="#7B6345" stroke="#6B5335" stroke-width="1"/>

  <circle cx="135" cy="160" r="6" fill="#A58710" stroke="#857707" stroke-width="1"/>
  <circle cx="175" cy="159" r="5" fill="#A58710" stroke="#857707" stroke-width="1"/>
  <circle cx="220" cy="160" r="6" fill="#A58710" stroke="#857707" stroke-width="1"/>
  <circle cx="265" cy="161" r="5" fill="#A58710" stroke="#857707" stroke-width="1"/>
  <circle cx="300" cy="160" r="5" fill="#A58710" stroke="#857707" stroke-width="1"/>

  <rect x="95" y="80" width="210" height="80" fill="#D4B042" stroke="#A88217" stroke-width="1"/>
  <line x1="100" y1="100" x2="300" y2="102" stroke="#C4A032" stroke-width="1" opacity="0.5"/>
  <line x1="100" y1="120" x2="300" y2="118" stroke="#C4A032" stroke-width="1" opacity="0.5"/>
  <line x1="100" y1="140" x2="300" y2="142" stroke="#C4A032" stroke-width="1" opacity="0.5"/>

  <ellipse cx="95" cy="115" rx="6" ry="7" fill="#8B7355" stroke="#6B5335" stroke-width="1"/>
  <rect x="95" y="108" width="210" height="14" fill="#8B7355" stroke="#6B5335" stroke-width="1"/>
  <ellipse cx="305" cy="115" rx="6" ry="7" fill="#7B6345" stroke="#6B5335" stroke-width="1"/>

  <path d="M95 80 Q120 75, 145 80 Q170 85, 195 78 Q220 72, 250 80 Q280 86, 305 80" fill="none" stroke="#B4A032" stroke-width="2"/>

  <line x1="95" y1="55" x2="305" y2="55" stroke="#333" stroke-width="1"/>
  <line x1="95" y1="50" x2="95" y2="60" stroke="#333" stroke-width="1"/>
  <line x1="305" y1="50" x2="305" y2="60" stroke="#333" stroke-width="1"/>
  <polygon points="95,55 102,52 102,58" fill="#333"/>
  <polygon points="305,55 298,52 298,58" fill="#333"/>
  <text x="200" y="50" font-family="Arial, sans-serif" font-size="11" text-anchor="middle" fill="#333">40-50cm Wall Thickness</text>

  <line x1="330" y1="160" x2="330" y2="240" stroke="#333" stroke-width="1"/>
  <line x1="325" y1="160" x2="335" y2="160" stroke="#333" stroke-width="1"/>
  <line x1="325" y1="240" x2="335" y2="240" stroke="#333" stroke-width="1"/>
  <polygon points="330,160 327,167 333,167" fill="#333"/>
  <polygon points="330,240 327,233 333,233" fill="#333"/>
  <text x="355" y="205" font-family="Arial, sans-serif" font-size="10" text-anchor="middle" fill="#333" transform="rotate(90, 355, 205)">30-40cm</text>
  <text x="350" y="280" font-family="Arial, sans-serif" font-size="9" fill="#333">Lift</text>
  <text x="350" y="290" font-family="Arial, sans-serif" font-size="9" fill="#333">Height</text>

  <rect x="20" y="420" width="12" height="12" fill="#C9A227" stroke="#A88217" stroke-width="1"/>
  <text x="36" y="430" font-family="Arial, sans-serif" font-size="9" fill="#333">Cob/Earth</text>
  <rect x="100" y="420" width="12" height="12" fill="#8B7355" stroke="#6B5335" stroke-width="1"/>
  <text x="116" y="430" font-family="Arial, sans-serif" font-size="9" fill="#333">Eucalyptus Poles</text>
  <circle cx="216" cy="426" r="5" fill="#A88217" stroke="#886207" stroke-width="1"/>
  <text x="226" y="430" font-family="Arial, sans-serif" font-size="9" fill="#333">Thumb Holes</text>

  <line x1="130" y1="318" x2="130" y2="300" stroke="#555" stroke-width="1"/>
  <line x1="130" y1="300" x2="30" y2="300" stroke="#555" stroke-width="1"/>
  <text x="25" y="295" font-family="Arial, sans-serif" font-size="8" fill="#555">Thumb holes for</text>
  <text x="25" y="304" font-family="Arial, sans-serif" font-size="8" fill="#555">mechanical interlock</text>
</svg>