<svg xmlns="http://www.w3.org/2000/svg" viewBox="0 0 450 300">
  <title>Ring Beam - Scarf Joint Detail</title>

  <defs>
    <linearGradient id="poleGradient" x1="0%" y1="0%" x2="0%" y2="100%">
      <stop offset="0%" style="stop-color:#A08060"/>
      <stop offset="50%" style="stop-color:#8B7355"/>
      <stop offset="100%" style="stop-color:#6B5335"/>
    </linearGradient>
    <linearGradient id="steelGradient" x1="0%" y1="0%" x2="0%" y2="100%">
      <stop offset="0%" style="stop-color:#888888"/>
      <stop offset="50%" style="stop-color:#666666"/>
      <stop offset="100%" style="stop-color:#444444"/>
    </linearGradient>
  </defs>

  <text x="225" y="25" font-family="Arial, sans-serif" font-size="14" font-weight="bold" text-anchor="middle" fill="#333">Ring Beam - Scarf Joint Detail</text>
  <text x="225" y="40" font-family="Arial, sans-serif" font-size="10" text-anchor="middle" fill="#666">(Partially Exploded View)</text>

  <text x="30" y="100" font-family="Arial, sans-serif" font-size="9" fill="#555">OUTER RING</text>
  <text x="30" y="200" font-family="Arial, sans-serif" font-size="9" fill="#555">INNER RING</text>

  <g transform="translate(0, -15)">
    <ellipse cx="95" cy="115" rx="8" ry="20" fill="url(#poleGradient)" stroke="#5A4530" stroke-width="1"/>
    <rect x="95" y="95" width="155" height="40" fill="url(#poleGradient)"/>
    <path d="M95,95 Q85,115 95,135" fill="url(#poleGradient)" stroke="#5A4530" stroke-width="1"/>
    <g transform="translate(25, 0)">
      <rect x="175" y="95" width="155" height="40" fill="url(#poleGradient)"/>
      <ellipse cx="330" cy="115" rx="8" ry="20" fill="url(#poleGradient)" stroke="#5A4530" stroke-width="1"/>
      <path d="M330,95 Q340,115 330,135" fill="#A08060" stroke="#5A4530" stroke-width="1"/>
      <path d="M175,95 L195,135 L175,135 Z" fill="#9A8365"/>
    </g>
    <path d="M250,95 L230,135 L250,135 Z" fill="#7A6345"/>
    <line x1="95" y1="95" x2="250" y2="95" stroke="#5A4530" stroke-width="1"/>
    <line x1="95" y1="135" x2="250" y2="135" stroke="#5A4530" stroke-width="1"/>
    <line x1="200" y1="95" x2="355" y2="95" stroke="#5A4530" stroke-width="1"/>
    <line x1="200" y1="135" x2="355" y2="135" stroke="#5A4530" stroke-width="1"/>
  </g>

  <g transform="translate(0, 55)">
    <ellipse cx="85" cy="145" rx="8" ry="20" fill="url(#poleGradient)" stroke="#5A4530" stroke-width="1"/>
    <rect x="85" y="125" width="165" height="40" fill="url(#poleGradient)"/>
    <path d="M85,125 Q75,145 85,165" fill="url(#poleGradient)" stroke="#5A4530" stroke-width="1"/>
    <g transform="translate(20, 0)">
      <rect x="185" y="125" width="155" height="40" fill="url(#poleGradient)"/>
      <ellipse cx="340" cy="145" rx="8" ry="20" fill="url(#poleGradient)" stroke="#5A4530" stroke-width="1"/>
      <path d="M340,125 Q350,145 340,165" fill="#A08060" stroke="#5A4530" stroke-width="1"/>
      <path d="M185,125 L205,165 L185,165 Z" fill="#9A8365"/>
    </g>
    <path d="M250,125 L230,165 L250,165 Z" fill="#7A6345"/>
    <line x1="85" y1="125" x2="250" y2="125" stroke="#5A4530" stroke-width="1"/>
    <line x1="85" y1="165" x2="250" y2="165" stroke="#5A4530" stroke-width="1"/>
    <line x1="205" y1="125" x2="360" y2="125" stroke="#5A4530" stroke-width="1"/>
    <line x1="205" y1="165" x2="360" y2="165" stroke="#5A4530" stroke-width="1"/>
  </g>

  <g>
    <rect x="140" y="128" width="160" height="6" fill="url(#steelGradient)" stroke="#444" stroke-width="0.5"/>
    <g stroke="#555" stroke-width="0.5">
      <line x1="145" y1="128" x2="145" y2="134"/>
      <line x1="150" y1="128" x2="150" y2="134"/>
      <line x1="155" y1="128" x2="155" y2="134"/>
      <line x1="280" y1="128" x2="280" y2="134"/>
      <line x1="285" y1="128" x2="285" y2="134"/>
      <line x1="290" y1="128" x2="290" y2="134"/>
    </g>
    <ellipse cx="138" cy="131" rx="3" ry="8" fill="#888" stroke="#444" stroke-width="0.5"/>
    <polygon points="125,123 133,123 136,131 133,139 125,139 122,131" fill="url(#steelGradient)" stroke="#444" stroke-width="0.5"/>
    <ellipse cx="302" cy="131" rx="3" ry="8" fill="#888" stroke="#444" stroke-width="0.5"/>
    <polygon points="307,123 315,123 318,131 315,139 307,139 304,131" fill="url(#steelGradient)" stroke="#444" stroke-width="0.5"/>
  </g>

  <g stroke="#A8A8A8" stroke-width="1.5" fill="none">
    <path d="M160,72 Q155,80 160,88 Q165,80 160,72" stroke-dasharray="2,1"/>
    <path d="M180,72 Q175,80 180,88 Q185,80 180,72" stroke-dasharray="2,1"/>
    <path d="M240,72 Q235,80 240,88 Q245,80 240,72" stroke-dasharray="2,1"/>
    <path d="M260,72 Q255,80 260,88 Q265,80 260,72" stroke-dasharray="2,1"/>
    <path d="M165,172 Q160,180 165,188 Q170,180 165,172" stroke-dasharray="2,1"/>
    <path d="M185,172 Q180,180 185,188 Q190,180 185,172" stroke-dasharray="2,1"/>
    <path d="M245,172 Q240,180 245,188 Q250,180 245,172" stroke-dasharray="2,1"/>
    <path d="M265,172 Q260,180 265,188 Q270,180 265,172" stroke-dasharray="2,1"/>
    <path d="M170,88 L180,172" opacity="0.6"/>
    <path d="M190,88 L200,172" opacity="0.6"/>
    <path d="M250,88 L260,172" opacity="0.6"/>
    <path d="M270,88 L280,172" opacity="0.6"/>
  </g>

  <g stroke="#333" stroke-width="0.75" fill="none">
    <line x1="175" y1="245" x2="175" y2="260"/>
    <line x1="295" y1="245" x2="295" y2="260"/>
    <line x1="175" y1="255" x2="295" y2="255"/>
    <polygon points="175,255 182,252 182,258" fill="#333"/>
    <polygon points="295,255 288,252 288,258" fill="#333"/>
  </g>
  <text x="235" y="270" font-family="Arial, sans-serif" font-size="11" text-anchor="middle" fill="#333">50cm OVERLAP</text>
  <line x1="175" y1="220" x2="175" y2="240" stroke="#333" stroke-width="0.5" stroke-dasharray="3,2"/>
  <line x1="295" y1="220" x2="295" y2="240" stroke="#333" stroke-width="0.5" stroke-dasharray="3,2"/>

  <g font-family="Arial, sans-serif" font-size="8" fill="#444">
    <text x="380" y="80">EUCALYPTUS POLE</text>
    <text x="380" y="90">(12-15cm DIA.)</text>
    <line x1="355" y1="85" x2="375" y2="85" stroke="#666" stroke-width="0.5"/>
    <circle cx="355" cy="85" r="1.5" fill="#666"/>
    <text x="380" y="135">THREADED</text>
    <text x="380" y="145">STEEL ROD</text>
    <line x1="320" y1="131" x2="375" y2="140" stroke="#666" stroke-width="0.5"/>
    <circle cx="320" cy="131" r="1.5" fill="#666"/>
    <text x="70" y="145">WIRE</text>
    <text x="70" y="155">LASHING</text>
    <line x1="95" y1="150" x2="160" y2="175" stroke="#666" stroke-width="0.5"/>
    <circle cx="160" cy="175" r="1.5" fill="#666"/>
    <text x="100" y="130">NUT &amp;</text>
    <text x="100" y="140">WASHER</text>
    <line x1="118" y1="131" x2="122" y2="131" stroke="#666" stroke-width="0.5"/>
  </g>

  <g transform="translate(10, 255)">
    <rect x="0" y="0" width="100" height="40" fill="white" stroke="#ccc" stroke-width="0.5" rx="3"/>
    <rect x="8" y="8" width="12" height="8" fill="#8B7355"/>
    <text x="25" y="15" font-family="Arial, sans-serif" font-size="7" fill="#333">Timber</text>
    <rect x="8" y="20" width="12" height="8" fill="#666666"/>
    <text x="25" y="27" font-family="Arial, sans-serif" font-size="7" fill="#333">Steel</text>
    <line x1="55" y1="11" x2="67" y2="11" stroke="#A8A8A8" stroke-width="2"/>
    <text x="72" y="15" font-family="Arial, sans-serif" font-size="7" fill="#333">Wire</text>
  </g>
</svg>