<svg xmlns="http://www.w3.org/2000/svg" viewBox="0 0 400 345">
  <!-- Title -->
  <text x="200" y="22" font-family="Arial, sans-serif" font-size="14" font-weight="bold" text-anchor="middle" fill="#1a2e1a">Char Depth Comparison</text>

  <!-- Background -->
  <rect x="0" y="0" width="400" height="345" fill="#F5F5F0"/>

  <!-- Divider line -->
  <line x1="200" y1="40" x2="200" y2="280" stroke="#ddd" stroke-width="1" stroke-dasharray="4,4"/>

  <!-- LEFT POLE: Cosmetic (inadequate) -->
  <g transform="translate(50, 50)">
    <!-- Pole end cross-section (outer ring = char) -->
    <circle cx="75" cy="100" r="60" fill="#2a2a2a" stroke="#1a1a1a" stroke-width="2"/>
    <!-- Inner wood (heartwood) - closer to surface = thin char -->
    <circle cx="75" cy="100" r="55" fill="#8B7355"/>
    <!-- Wood grain rings -->
    <circle cx="75" cy="100" r="45" fill="none" stroke="#7A6548" stroke-width="0.5"/>
    <circle cx="75" cy="100" r="35" fill="none" stroke="#7A6548" stroke-width="0.5"/>
    <circle cx="75" cy="100" r="25" fill="none" stroke="#7A6548" stroke-width="0.5"/>
    <circle cx="75" cy="100" r="15" fill="none" stroke="#7A6548" stroke-width="0.5"/>

    <!-- Smooth surface texture (not cracked) -->
    <circle cx="75" cy="100" r="58" fill="none" stroke="#3a3a3a" stroke-width="1" stroke-dasharray="2,6"/>

    <!-- Depth measurement line -->
    <line x1="135" y1="100" x2="145" y2="100" stroke="#333" stroke-width="1"/>
    <line x1="130" y1="100" x2="135" y2="100" stroke="#333" stroke-width="1"/>
    <!-- Char layer extent -->
    <line x1="140" y1="45" x2="140" y2="100" stroke="#ef5350" stroke-width="1.5"/>
    <line x1="135" y1="45" x2="145" y2="45" stroke="#ef5350" stroke-width="1"/>
    <line x1="135" y1="55" x2="145" y2="55" stroke="#ef5350" stroke-width="1"/>
    <!-- 3-5mm label -->
    <text x="150" y="52" font-family="Arial, sans-serif" font-size="10" fill="#ef5350" font-weight="bold">3-5mm</text>

    <!-- Label -->
    <rect x="20" y="175" width="110" height="45" fill="#ffebee" stroke="#ef5350" stroke-width="1" rx="4"/>
    <text x="75" y="192" font-family="Arial, sans-serif" font-size="11" text-anchor="middle" fill="#c62828" font-weight="bold">COSMETIC</text>
    <text x="75" y="208" font-family="Arial, sans-serif" font-size="10" text-anchor="middle" fill="#c62828">(Inadequate)</text>

    <!-- Characteristics -->
    <text x="75" y="240" font-family="Arial, sans-serif" font-size="8" text-anchor="middle" fill="#555">Smooth surface</text>
    <text x="75" y="252" font-family="Arial, sans-serif" font-size="8" text-anchor="middle" fill="#555">No deep cracking</text>
  </g>

  <!-- RIGHT POLE: Structural (target) -->
  <g transform="translate(200, 50)">
    <!-- Pole end cross-section (outer ring = deep char) -->
    <circle cx="75" cy="100" r="60" fill="#1a1a1a" stroke="#0a0a0a" stroke-width="2"/>
    <!-- Inner wood (heartwood) - farther from surface = thick char -->
    <circle cx="75" cy="100" r="48" fill="#8B7355"/>
    <!-- Wood grain rings -->
    <circle cx="75" cy="100" r="40" fill="none" stroke="#7A6548" stroke-width="0.5"/>
    <circle cx="75" cy="100" r="32" fill="none" stroke="#7A6548" stroke-width="0.5"/>
    <circle cx="75" cy="100" r="24" fill="none" stroke="#7A6548" stroke-width="0.5"/>
    <circle cx="75" cy="100" r="16" fill="none" stroke="#7A6548" stroke-width="0.5"/>

    <!-- Alligator-scale cracking pattern in char layer -->
    <!-- Radial cracks -->
    <line x1="75" y1="40" x2="75" y2="52" stroke="#3a3a3a" stroke-width="1.5"/>
    <line x1="75" y1="148" x2="75" y2="160" stroke="#3a3a3a" stroke-width="1.5"/>
    <line x1="15" y1="100" x2="27" y2="100" stroke="#3a3a3a" stroke-width="1.5"/>
    <line x1="123" y1="100" x2="135" y2="100" stroke="#3a3a3a" stroke-width="1.5"/>
    <!-- Diagonal cracks -->
    <line x1="33" y1="58" x2="42" y2="67" stroke="#3a3a3a" stroke-width="1.5"/>
    <line x1="108" y1="133" x2="117" y2="142" stroke="#3a3a3a" stroke-width="1.5"/>
    <line x1="117" y1="58" x2="108" y2="67" stroke="#3a3a3a" stroke-width="1.5"/>
    <line x1="42" y1="133" x2="33" y2="142" stroke="#3a3a3a" stroke-width="1.5"/>
    <!-- Circumferential crack segments -->
    <path d="M45,50 Q55,48 65,50" fill="none" stroke="#3a3a3a" stroke-width="1"/>
    <path d="M85,50 Q95,48 105,50" fill="none" stroke="#3a3a3a" stroke-width="1"/>
    <path d="M45,150 Q55,152 65,150" fill="none" stroke="#3a3a3a" stroke-width="1"/>
    <path d="M85,150 Q95,152 105,150" fill="none" stroke="#3a3a3a" stroke-width="1"/>
    <path d="M18,70 Q16,80 18,90" fill="none" stroke="#3a3a3a" stroke-width="1"/>
    <path d="M18,110 Q16,120 18,130" fill="none" stroke="#3a3a3a" stroke-width="1"/>
    <path d="M132,70 Q134,80 132,90" fill="none" stroke="#3a3a3a" stroke-width="1"/>
    <path d="M132,110 Q134,120 132,130" fill="none" stroke="#3a3a3a" stroke-width="1"/>

    <!-- Depth measurement line -->
    <line x1="135" y1="100" x2="145" y2="100" stroke="#333" stroke-width="1"/>
    <line x1="123" y1="100" x2="135" y2="100" stroke="#333" stroke-width="1"/>
    <!-- Char layer extent -->
    <line x1="140" y1="40" x2="140" y2="100" stroke="#4caf50" stroke-width="1.5"/>
    <line x1="135" y1="40" x2="145" y2="40" stroke="#4caf50" stroke-width="1"/>
    <line x1="135" y1="52" x2="145" y2="52" stroke="#4caf50" stroke-width="1"/>
    <!-- 8-10mm label -->
    <text x="150" y="48" font-family="Arial, sans-serif" font-size="10" fill="#4caf50" font-weight="bold">8-10mm</text>

    <!-- Label -->
    <rect x="20" y="175" width="110" height="45" fill="#e8f5e9" stroke="#4caf50" stroke-width="1" rx="4"/>
    <text x="75" y="192" font-family="Arial, sans-serif" font-size="11" text-anchor="middle" fill="#2e7d32" font-weight="bold">STRUCTURAL</text>
    <text x="75" y="208" font-family="Arial, sans-serif" font-size="10" text-anchor="middle" fill="#2e7d32">(Target)</text>

    <!-- Characteristics -->
    <text x="75" y="240" font-family="Arial, sans-serif" font-size="8" text-anchor="middle" fill="#555">Alligator-scale cracking</text>
    <text x="75" y="252" font-family="Arial, sans-serif" font-size="8" text-anchor="middle" fill="#555">Deep char penetration</text>
  </g>

  <!-- Test instruction at bottom -->
  <rect x="100" y="312" width="200" height="22" fill="#fff8e6" stroke="#e6c200" stroke-width="1" rx="3"/>
  <text x="200" y="327" font-family="Arial, sans-serif" font-size="9" text-anchor="middle" fill="#8B6914">Test depth by scraping with a knife</text>
</svg>