<svg xmlns="http://www.w3.org/2000/svg" viewBox="0 0 450 300">
  <title>Solar Panel Mounting Detail</title>
  <defs>
    <pattern id="woodGrain" patternUnits="userSpaceOnUse" width="8" height="8">
      <rect width="8" height="8" fill="#8B7355"/>
      <path d="M0 2 Q4 1 8 2" stroke="#7A6348" stroke-width="0.5" fill="none"/>
      <path d="M0 5 Q4 6 8 5" stroke="#9C8466" stroke-width="0.3" fill="none"/>
    </pattern>
    <pattern id="solarCells" patternUnits="userSpaceOnUse" width="20" height="20">
      <rect width="20" height="20" fill="#2A3F5F"/>
      <rect x="1" y="1" width="18" height="18" fill="#1E2D45"/>
      <line x1="10" y1="1" x2="10" y2="19" stroke="#2A3F5F" stroke-width="0.5"/>
      <line x1="1" y1="10" x2="19" y2="10" stroke="#2A3F5F" stroke-width="0.5"/>
    </pattern>
    <linearGradient id="aluminumGrad" x1="0%" y1="0%" x2="0%" y2="100%">
      <stop offset="0%" style="stop-color:#D8D8D8"/>
      <stop offset="50%" style="stop-color:#C0C0C0"/>
      <stop offset="100%" style="stop-color:#A8A8A8"/>
    </linearGradient>
    <linearGradient id="frameGrad" x1="0%" y1="0%" x2="100%" y2="0%">
      <stop offset="0%" style="stop-color:#B0B0B0"/>
      <stop offset="50%" style="stop-color:#D0D0D0"/>
      <stop offset="100%" style="stop-color:#A0A0A0"/>
    </linearGradient>
  </defs>
  <rect width="450" height="300" fill="#F5F5F0"/>
  <text x="225" y="22" font-family="Arial, sans-serif" font-size="14" font-weight="bold" text-anchor="middle" fill="#333">Solar Panel Mounting Detail</text>
  <g transform="translate(80, 230) rotate(-30)">
    <rect x="-10" y="55" width="320" height="8" fill="#333333" rx="1"/>
    <text x="330" y="61" font-family="Arial, sans-serif" font-size="8" fill="#333333">EPDM Membrane</text>
    <g transform="translate(20, 20)">
      <rect x="0" y="0" width="50" height="35" fill="url(#woodGrain)" stroke="#6B5344" stroke-width="1"/>
      <ellipse cx="25" cy="17" rx="12" ry="8" fill="none" stroke="#7A6348" stroke-width="0.5"/>
      <ellipse cx="25" cy="17" rx="8" ry="5" fill="none" stroke="#7A6348" stroke-width="0.5"/>
      <ellipse cx="25" cy="17" rx="4" ry="2" fill="none" stroke="#7A6348" stroke-width="0.5"/>
    </g>
    <g transform="translate(150, 20)">
      <rect x="0" y="0" width="50" height="35" fill="url(#woodGrain)" stroke="#6B5344" stroke-width="1"/>
      <ellipse cx="25" cy="17" rx="12" ry="8" fill="none" stroke="#7A6348" stroke-width="0.5"/>
      <ellipse cx="25" cy="17" rx="8" ry="5" fill="none" stroke="#7A6348" stroke-width="0.5"/>
      <ellipse cx="25" cy="17" rx="4" ry="2" fill="none" stroke="#7A6348" stroke-width="0.5"/>
    </g>
    <g transform="translate(280, 20)">
      <rect x="0" y="0" width="50" height="35" fill="url(#woodGrain)" stroke="#6B5344" stroke-width="1"/>
      <ellipse cx="25" cy="17" rx="12" ry="8" fill="none" stroke="#7A6348" stroke-width="0.5"/>
      <ellipse cx="25" cy="17" rx="8" ry="5" fill="none" stroke="#7A6348" stroke-width="0.5"/>
      <ellipse cx="25" cy="17" rx="4" ry="2" fill="none" stroke="#7A6348" stroke-width="0.5"/>
    </g>
    <text x="45" y="70" font-family="Arial, sans-serif" font-size="7" fill="#8B7355">Eucalyptus Purlin</text>
    <g transform="translate(10, 10)">
      <rect x="0" y="0" width="320" height="10" fill="url(#aluminumGrad)" stroke="#909090" stroke-width="0.5"/>
      <rect x="5" y="3" width="310" height="4" fill="#B8B8B8"/>
      <line x1="5" y1="5" x2="315" y2="5" stroke="#A0A0A0" stroke-width="0.5"/>
    </g>
    <g transform="translate(35, 10)">
      <path d="M0 10 L0 15 L-5 20 L5 20 L0 15" fill="url(#aluminumGrad)" stroke="#909090" stroke-width="0.5"/>
      <circle cx="0" cy="22" r="2" fill="#666666"/>
    </g>
    <g transform="translate(165, 10)">
      <path d="M0 10 L0 15 L-5 20 L5 20 L0 15" fill="url(#aluminumGrad)" stroke="#909090" stroke-width="0.5"/>
      <circle cx="0" cy="22" r="2" fill="#666666"/>
    </g>
    <g transform="translate(295, 10)">
      <path d="M0 10 L0 15 L-5 20 L5 20 L0 15" fill="url(#aluminumGrad)" stroke="#909090" stroke-width="0.5"/>
      <circle cx="0" cy="22" r="2" fill="#666666"/>
    </g>
    <text x="340" y="18" font-family="Arial, sans-serif" font-size="7" fill="#909090">Al Rail</text>
    <g transform="translate(5, -55)">
      <rect x="0" y="0" width="330" height="60" fill="url(#frameGrad)" stroke="#808080" stroke-width="1.5" rx="2"/>
      <rect x="4" y="4" width="322" height="52" fill="url(#solarCells)" stroke="#1A2A40" stroke-width="0.5"/>
      <g stroke="#3A4F6F" stroke-width="0.3">
        <line x1="58" y1="4" x2="58" y2="56"/>
        <line x1="112" y1="4" x2="112" y2="56"/>
        <line x1="166" y1="4" x2="166" y2="56"/>
        <line x1="220" y1="4" x2="220" y2="56"/>
        <line x1="274" y1="4" x2="274" y2="56"/>
        <line x1="4" y1="30" x2="326" y2="30"/>
      </g>
      <g stroke="#8899AA" stroke-width="0.5">
        <line x1="4" y1="20" x2="326" y2="20"/>
        <line x1="4" y1="40" x2="326" y2="40"/>
      </g>
    </g>
    <text x="340" y="-25" font-family="Arial, sans-serif" font-size="7" fill="#2A3F5F">Solar Panel</text>
    <g transform="translate(85, -5)">
      <rect x="-8" y="0" width="16" height="8" fill="url(#aluminumGrad)" stroke="#909090" stroke-width="0.5" rx="1"/>
      <rect x="-3" y="-2" width="6" height="4" fill="#808080"/>
      <line x1="-6" y1="4" x2="6" y2="4" stroke="#A8A8A8" stroke-width="0.5"/>
    </g>
    <g transform="translate(170, -5)">
      <rect x="-8" y="0" width="16" height="8" fill="url(#aluminumGrad)" stroke="#909090" stroke-width="0.5" rx="1"/>
      <rect x="-3" y="-2" width="6" height="4" fill="#808080"/>
      <line x1="-6" y1="4" x2="6" y2="4" stroke="#A8A8A8" stroke-width="0.5"/>
    </g>
    <g transform="translate(255, -5)">
      <rect x="-8" y="0" width="16" height="8" fill="url(#aluminumGrad)" stroke="#909090" stroke-width="0.5" rx="1"/>
      <rect x="-3" y="-2" width="6" height="4" fill="#808080"/>
      <line x1="-6" y1="4" x2="6" y2="4" stroke="#A8A8A8" stroke-width="0.5"/>
    </g>
    <text x="270" y="-12" font-family="Arial, sans-serif" font-size="6" fill="#808080">Mid Clamp</text>
    <g transform="translate(20, 40)">
      <rect x="0" y="0" width="290" height="8" fill="#666666" stroke="#555555" stroke-width="0.5" rx="4"/>
      <rect x="2" y="1" width="286" height="2" fill="#777777" rx="1"/>
      <rect x="40" y="-2" width="6" height="12" fill="#555555" rx="1"/>
      <rect x="140" y="-2" width="6" height="12" fill="#555555" rx="1"/>
      <rect x="240" y="-2" width="6" height="12" fill="#555555" rx="1"/>
    </g>
    <text x="175" y="58" font-family="Arial, sans-serif" font-size="6" fill="#666666">DC Conduit</text>
  </g>
  <g transform="translate(60, 260)">
    <line x1="0" y1="0" x2="80" y2="0" stroke="#666" stroke-width="1" stroke-dasharray="4,2"/>
    <line x1="0" y1="0" x2="69" y2="-40" stroke="#666" stroke-width="1" stroke-dasharray="4,2"/>
    <path d="M 40 0 A 40 40 0 0 0 34.6 -20" fill="none" stroke="#E74C3C" stroke-width="1.5"/>
    <text x="48" y="-5" font-family="Arial, sans-serif" font-size="10" fill="#E74C3C" font-weight="bold">30°</text>
    <text x="5" y="15" font-family="Arial, sans-serif" font-size="8" fill="#666">Roof Pitch</text>
  </g>
  <g transform="translate(320, 240)">
    <text x="0" y="0" font-family="Arial, sans-serif" font-size="8" font-weight="bold" fill="#333">Components:</text>
    <rect x="0" y="8" width="12" height="8" fill="#8B7355"/>
    <text x="16" y="15" font-family="Arial, sans-serif" font-size="7" fill="#333">Eucalyptus Purlin</text>
    <rect x="0" y="20" width="12" height="8" fill="url(#aluminumGrad)"/>
    <text x="16" y="27" font-family="Arial, sans-serif" font-size="7" fill="#333">Aluminum Rail</text>
    <rect x="0" y="32" width="12" height="8" fill="#2A3F5F"/>
    <text x="16" y="39" font-family="Arial, sans-serif" font-size="7" fill="#333">Solar Panel</text>
    <rect x="0" y="44" width="12" height="8" fill="#666666"/>
    <text x="16" y="51" font-family="Arial, sans-serif" font-size="7" fill="#333">DC Conduit</text>
  </g>
</svg>