<svg xmlns="http://www.w3.org/2000/svg" viewBox="0 0 400 350">
  <defs>
    <pattern id="wireMesh" width="8" height="8" patternUnits="userSpaceOnUse">
      <path d="M0,0 L8,0 M0,4 L8,4 M0,8 L8,8 M0,0 L0,8 M4,0 L4,8 M8,0 L8,8" stroke="#A8A8A8" stroke-width="0.5" fill="none"/>
    </pattern>
    <linearGradient id="ghostedGradient" x1="0%" y1="0%" x2="100%" y2="0%">
      <stop offset="0%" style="stop-color:#A8A8A8;stop-opacity:0.3"/>
      <stop offset="100%" style="stop-color:#A8A8A8;stop-opacity:0.6"/>
    </linearGradient>
    <pattern id="terraceStone" width="30" height="20" patternUnits="userSpaceOnUse">
      <rect width="30" height="20" fill="#6A6A6A"/>
      <rect x="1" y="1" width="13" height="8" fill="#5E5E5E" rx="1"/>
      <rect x="16" y="1" width="12" height="8" fill="#626262" rx="1"/>
      <rect x="1" y="11" width="8" height="7" fill="#606060" rx="1"/>
      <rect x="11" y="11" width="17" height="7" fill="#5C5C5C" rx="1"/>
    </pattern>
    <pattern id="mortarPattern" width="6" height="6" patternUnits="userSpaceOnUse">
      <rect width="6" height="6" fill="#D4CFC4"/>
      <circle cx="2" cy="2" r="0.5" fill="#C8C3B8"/>
      <circle cx="5" cy="4" r="0.3" fill="#CCC7BC"/>
    </pattern>
  </defs>
  <rect width="400" height="350" fill="#F5F5F0"/>
  <text x="200" y="22" font-family="Arial, sans-serif" font-size="12" font-weight="bold" text-anchor="middle" fill="#333">TERRACE WALL CONNECTION DETAIL</text>
  <line x1="50" y1="28" x2="350" y2="28" stroke="#999" stroke-width="0.5"/>
  <line x1="20" y1="300" x2="380" y2="300" stroke="#444" stroke-width="1.5"/>
  <text x="385" y="303" font-family="Arial, sans-serif" font-size="8" fill="#666">GL</text>

  <g id="terraceWall">
    <rect x="260" y="80" width="80" height="220" fill="url(#terraceStone)" stroke="#555" stroke-width="1"/>
    <rect x="262" y="85" width="35" height="18" fill="#686868" rx="2" stroke="#5A5A5A" stroke-width="0.5"/>
    <rect x="300" y="85" width="38" height="18" fill="#6C6C6C" rx="2" stroke="#5A5A5A" stroke-width="0.5"/>
    <rect x="262" y="106" width="22" height="16" fill="#6A6A6A" rx="2" stroke="#5A5A5A" stroke-width="0.5"/>
    <rect x="287" y="106" width="28" height="16" fill="#666666" rx="2" stroke="#5A5A5A" stroke-width="0.5"/>
    <rect x="318" y="106" width="20" height="16" fill="#6E6E6E" rx="2" stroke="#5A5A5A" stroke-width="0.5"/>
    <rect x="262" y="125" width="40" height="20" fill="#6B6B6B" rx="2" stroke="#5A5A5A" stroke-width="0.5"/>
    <rect x="305" y="125" width="33" height="20" fill="#696969" rx="2" stroke="#5A5A5A" stroke-width="0.5"/>
    <rect x="262" y="148" width="25" height="17" fill="#6D6D6D" rx="2" stroke="#5A5A5A" stroke-width="0.5"/>
    <rect x="290" y="148" width="48" height="17" fill="#676767" rx="2" stroke="#5A5A5A" stroke-width="0.5"/>
    <rect x="262" y="168" width="45" height="19" fill="#6A6A6A" rx="2" stroke="#5A5A5A" stroke-width="0.5"/>
    <rect x="310" y="168" width="28" height="19" fill="#6C6C6C" rx="2" stroke="#5A5A5A" stroke-width="0.5"/>
    <text x="300" y="250" font-family="Arial, sans-serif" font-size="7" text-anchor="middle" fill="#444">EXISTING</text>
    <text x="300" y="258" font-family="Arial, sans-serif" font-size="7" text-anchor="middle" fill="#444">DRY STONE</text>
    <text x="300" y="266" font-family="Arial, sans-serif" font-size="7" text-anchor="middle" fill="#444">TERRACE WALL</text>
  </g>

  <g id="gabion">
    <path d="M260,300 L260,200 Q260,140 200,140 Q140,140 140,200 L140,300 Z" fill="url(#wireMesh)" stroke="#A8A8A8" stroke-width="1.5" opacity="0.9"/>
    <g id="gabionStones">
      <ellipse cx="160" cy="280" rx="12" ry="8" fill="#7A7A7A" stroke="#666" stroke-width="0.5"/>
      <ellipse cx="185" cy="285" rx="10" ry="7" fill="#787878" stroke="#666" stroke-width="0.5"/>
      <ellipse cx="210" cy="282" rx="14" ry="9" fill="#7C7C7C" stroke="#666" stroke-width="0.5"/>
      <ellipse cx="240" cy="280" rx="11" ry="8" fill="#7A7A7A" stroke="#666" stroke-width="0.5"/>
      <ellipse cx="175" cy="268" rx="13" ry="8" fill="#767676" stroke="#666" stroke-width="0.5"/>
      <ellipse cx="200" cy="265" rx="11" ry="7" fill="#7E7E7E" stroke="#666" stroke-width="0.5"/>
      <ellipse cx="225" cy="268" rx="12" ry="8" fill="#7A7A7A" stroke="#666" stroke-width="0.5"/>
      <ellipse cx="248" cy="262" rx="9" ry="6" fill="#787878" stroke="#666" stroke-width="0.5"/>
      <ellipse cx="155" cy="245" rx="10" ry="7" fill="#7C7C7C" stroke="#666" stroke-width="0.5"/>
      <ellipse cx="180" cy="248" rx="14" ry="9" fill="#787878" stroke="#666" stroke-width="0.5"/>
      <ellipse cx="208" cy="245" rx="12" ry="8" fill="#7A7A7A" stroke="#666" stroke-width="0.5"/>
      <ellipse cx="235" cy="242" rx="11" ry="7" fill="#767676" stroke="#666" stroke-width="0.5"/>
      <ellipse cx="168" cy="228" rx="11" ry="8" fill="#7A7A7A" stroke="#666" stroke-width="0.5"/>
      <ellipse cx="195" cy="225" rx="13" ry="8" fill="#7E7E7E" stroke="#666" stroke-width="0.5"/>
      <ellipse cx="222" cy="228" rx="10" ry="7" fill="#787878" stroke="#666" stroke-width="0.5"/>
      <ellipse cx="245" cy="222" rx="8" ry="6" fill="#7C7C7C" stroke="#666" stroke-width="0.5"/>
      <ellipse cx="160" cy="205" rx="12" ry="7" fill="#767676" stroke="#666" stroke-width="0.5"/>
      <ellipse cx="185" cy="200" rx="10" ry="6" fill="#7A7A7A" stroke="#666" stroke-width="0.5"/>
      <ellipse cx="210" cy="202" rx="14" ry="8" fill="#787878" stroke="#666" stroke-width="0.5"/>
      <ellipse cx="238" cy="198" rx="9" ry="6" fill="#7C7C7C" stroke="#666" stroke-width="0.5"/>
      <ellipse cx="175" cy="182" rx="11" ry="7" fill="#7E7E7E" stroke="#666" stroke-width="0.5"/>
      <ellipse cx="200" cy="178" rx="12" ry="7" fill="#7A7A7A" stroke="#666" stroke-width="0.5"/>
      <ellipse cx="228" cy="180" rx="10" ry="6" fill="#767676" stroke="#666" stroke-width="0.5"/>
      <ellipse cx="165" cy="162" rx="9" ry="6" fill="#787878" stroke="#666" stroke-width="0.5"/>
      <ellipse cx="188" cy="158" rx="11" ry="7" fill="#7C7C7C" stroke="#666" stroke-width="0.5"/>
      <ellipse cx="215" cy="160" rx="10" ry="6" fill="#7A7A7A" stroke="#666" stroke-width="0.5"/>
      <ellipse cx="200" cy="148" rx="8" ry="5" fill="#767676" stroke="#666" stroke-width="0.5"/>
    </g>
    <path d="M260,300 L260,200 Q260,140 200,140 Q140,140 140,200 L140,300" fill="none" stroke="#A8A8A8" stroke-width="2"/>
    <line x1="145" y1="180" x2="255" y2="180" stroke="#A8A8A8" stroke-width="1" stroke-dasharray="2,4"/>
    <line x1="142" y1="220" x2="258" y2="220" stroke="#A8A8A8" stroke-width="1" stroke-dasharray="2,4"/>
    <line x1="140" y1="260" x2="260" y2="260" stroke="#A8A8A8" stroke-width="1" stroke-dasharray="2,4"/>
    <line x1="175" y1="155" x2="175" y2="300" stroke="#A8A8A8" stroke-width="1" stroke-dasharray="2,4"/>
    <line x1="200" y1="140" x2="200" y2="300" stroke="#A8A8A8" stroke-width="1" stroke-dasharray="2,4"/>
    <line x1="225" y1="155" x2="225" y2="300" stroke="#A8A8A8" stroke-width="1" stroke-dasharray="2,4"/>
  </g>

  <g id="anchorPlates">
    <rect x="252" y="155" width="20" height="25" fill="url(#mortarPattern)" stroke="#B8B3A8" stroke-width="0.5"/>
    <rect x="255" y="160" width="14" height="4" fill="#666666" stroke="#555" stroke-width="0.5"/>
    <rect x="255" y="172" width="14" height="4" fill="#666666" stroke="#555" stroke-width="0.5"/>
    <circle cx="258" cy="162" r="1.5" fill="#555"/>
    <circle cx="266" cy="162" r="1.5" fill="#555"/>
    <circle cx="258" cy="174" r="1.5" fill="#555"/>
    <circle cx="266" cy="174" r="1.5" fill="#555"/>
    <rect x="252" y="195" width="20" height="25" fill="url(#mortarPattern)" stroke="#B8B3A8" stroke-width="0.5"/>
    <rect x="255" y="200" width="14" height="4" fill="#666666" stroke="#555" stroke-width="0.5"/>
    <rect x="255" y="212" width="14" height="4" fill="#666666" stroke="#555" stroke-width="0.5"/>
    <circle cx="258" cy="202" r="1.5" fill="#555"/>
    <circle cx="266" cy="202" r="1.5" fill="#555"/>
    <circle cx="258" cy="214" r="1.5" fill="#555"/>
    <circle cx="266" cy="214" r="1.5" fill="#555"/>
    <rect x="252" y="240" width="20" height="25" fill="url(#mortarPattern)" stroke="#B8B3A8" stroke-width="0.5"/>
    <rect x="255" y="245" width="14" height="4" fill="#666666" stroke="#555" stroke-width="0.5"/>
    <rect x="255" y="257" width="14" height="4" fill="#666666" stroke="#555" stroke-width="0.5"/>
    <circle cx="258" cy="247" r="1.5" fill="#555"/>
    <circle cx="266" cy="247" r="1.5" fill="#555"/>
    <circle cx="258" cy="259" r="1.5" fill="#555"/>
    <circle cx="266" cy="259" r="1.5" fill="#555"/>
    <line x1="255" y1="162" x2="245" y2="165" stroke="#666666" stroke-width="1"/>
    <line x1="255" y1="174" x2="242" y2="180" stroke="#666666" stroke-width="1"/>
    <line x1="255" y1="202" x2="248" y2="205" stroke="#666666" stroke-width="1"/>
    <line x1="255" y1="214" x2="245" y2="220" stroke="#666666" stroke-width="1"/>
    <line x1="255" y1="247" x2="250" y2="250" stroke="#666666" stroke-width="1"/>
    <line x1="255" y1="259" x2="248" y2="260" stroke="#666666" stroke-width="1"/>
  </g>

  <g id="ringBeam">
    <rect x="140" y="120" width="140" height="18" fill="#8B7355" stroke="#6B5340" stroke-width="1"/>
    <line x1="145" y1="124" x2="275" y2="124" stroke="#7A6548" stroke-width="0.5"/>
    <line x1="145" y1="128" x2="275" y2="128" stroke="#9A8365" stroke-width="0.5"/>
    <line x1="145" y1="132" x2="275" y2="132" stroke="#7A6548" stroke-width="0.5"/>
    <rect x="140" y="120" width="5" height="18" fill="#7A6548" stroke="#6B5340" stroke-width="0.5"/>
    <ellipse cx="142.5" cy="129" rx="1.5" ry="6" fill="#6B5340" opacity="0.5"/>
    <text x="210" y="115" font-family="Arial, sans-serif" font-size="7" text-anchor="middle" fill="#444">EUCALYPTUS TOP PLATE</text>
  </g>

  <g id="threadedRods">
    <line x1="265" y1="80" x2="265" y2="138" stroke="#666666" stroke-width="3"/>
    <rect x="262" y="116" width="6" height="4" fill="#555" stroke="#444" stroke-width="0.5"/>
    <rect x="261" y="132" width="8" height="6" fill="#555" stroke="#444" stroke-width="0.5"/>
    <line x1="285" y1="80" x2="285" y2="138" stroke="#666666" stroke-width="3"/>
    <rect x="282" y="116" width="6" height="4" fill="#555" stroke="#444" stroke-width="0.5"/>
    <rect x="281" y="132" width="8" height="6" fill="#555" stroke="#444" stroke-width="0.5"/>
  </g>

  <g id="dimensions" font-family="Arial, sans-serif" font-size="7" fill="#333">
    <line x1="140" y1="315" x2="260" y2="315" stroke="#333" stroke-width="0.5"/>
    <line x1="140" y1="310" x2="140" y2="320" stroke="#333" stroke-width="0.5"/>
    <line x1="260" y1="310" x2="260" y2="320" stroke="#333" stroke-width="0.5"/>
    <text x="200" y="325" text-anchor="middle">1200mm GABION DIA.</text>
    <line x1="260" y1="315" x2="340" y2="315" stroke="#333" stroke-width="0.5"/>
    <line x1="340" y1="310" x2="340" y2="320" stroke="#333" stroke-width="0.5"/>
    <text x="300" y="325" text-anchor="middle">800mm</text>
    <line x1="125" y1="140" x2="125" y2="300" stroke="#333" stroke-width="0.5"/>
    <line x1="120" y1="140" x2="130" y2="140" stroke="#333" stroke-width="0.5"/>
    <line x1="120" y1="300" x2="130" y2="300" stroke="#333" stroke-width="0.5"/>
    <text x="115" y="220" text-anchor="middle" transform="rotate(-90,115,220)">1600mm</text>
  </g>

  <g id="legend" transform="translate(20, 45)">
    <text x="0" y="0" font-family="Arial, sans-serif" font-size="7" font-weight="bold" fill="#333">LEGEND:</text>
    <rect x="0" y="8" width="12" height="8" fill="#7A7A7A" stroke="#666" stroke-width="0.5"/>
    <text x="16" y="15" font-family="Arial, sans-serif" font-size="6" fill="#444">Granite stones</text>
    <rect x="0" y="20" width="12" height="8" fill="url(#wireMesh)" stroke="#A8A8A8" stroke-width="0.5"/>
    <text x="16" y="27" font-family="Arial, sans-serif" font-size="6" fill="#444">Wire mesh</text>
    <rect x="0" y="32" width="12" height="8" fill="#6A6A6A" stroke="#5A5A5A" stroke-width="0.5"/>
    <text x="16" y="39" font-family="Arial, sans-serif" font-size="6" fill="#444">Dry stone wall</text>
    <rect x="0" y="44" width="12" height="8" fill="#8B7355" stroke="#6B5340" stroke-width="0.5"/>
    <text x="16" y="51" font-family="Arial, sans-serif" font-size="6" fill="#444">Eucalyptus timber</text>
    <rect x="0" y="56" width="12" height="8" fill="#666666" stroke="#555" stroke-width="0.5"/>
    <text x="16" y="63" font-family="Arial, sans-serif" font-size="6" fill="#444">Steel hardware</text>
    <rect x="0" y="68" width="12" height="8" fill="url(#mortarPattern)" stroke="#B8B3A8" stroke-width="0.5"/>
    <text x="16" y="75" font-family="Arial, sans-serif" font-size="6" fill="#444">Lime mortar</text>
  </g>
  <text x="380" y="340" font-family="Arial, sans-serif" font-size="8" text-anchor="end" fill="#666">SECTION A-A</text>
</svg>