<svg xmlns="http://www.w3.org/2000/svg" viewBox="0 0 400 300">
  <!-- Title -->
  <text x="200" y="25" font-family="Arial, sans-serif" font-size="16" font-weight="bold" text-anchor="middle" fill="#333">Gabion Foundation - Cross Section</text>

  <!-- Background -->
  <rect x="0" y="0" width="400" height="300" fill="white"/>

  <!-- Ground/Earth - Left side -->
  <rect x="0" y="120" width="110" height="180" fill="#C9A227"/>

  <!-- Ground/Earth - Right side -->
  <rect x="290" y="120" width="110" height="180" fill="#C9A227"/>

  <!-- Trench walls (earth below gabion level) -->
  <rect x="110" y="195" width="180" height="105" fill="#C9A227"/>

  <!-- Excavated trench area (will be covered by gabion) -->
  <rect x="110" y="195" width="180" height="75" fill="white"/>

  <!-- Gabion wire mesh cage outline -->
  <rect x="110" y="45" width="180" height="225" fill="none" stroke="#A8A8A8" stroke-width="3"/>

  <!-- Horizontal wire mesh lines -->
  <line x1="110" y1="70" x2="290" y2="70" stroke="#A8A8A8" stroke-width="1.5"/>
  <line x1="110" y1="95" x2="290" y2="95" stroke="#A8A8A8" stroke-width="1.5"/>
  <line x1="110" y1="120" x2="290" y2="120" stroke="#A8A8A8" stroke-width="1.5"/>
  <line x1="110" y1="145" x2="290" y2="145" stroke="#A8A8A8" stroke-width="1.5"/>
  <line x1="110" y1="170" x2="290" y2="170" stroke="#A8A8A8" stroke-width="1.5"/>
  <line x1="110" y1="195" x2="290" y2="195" stroke="#A8A8A8" stroke-width="1.5"/>
  <line x1="110" y1="220" x2="290" y2="220" stroke="#A8A8A8" stroke-width="1.5"/>
  <line x1="110" y1="245" x2="290" y2="245" stroke="#A8A8A8" stroke-width="1.5"/>

  <!-- Vertical wire mesh lines -->
  <line x1="135" y1="45" x2="135" y2="270" stroke="#A8A8A8" stroke-width="1.5"/>
  <line x1="160" y1="45" x2="160" y2="270" stroke="#A8A8A8" stroke-width="1.5"/>
  <line x1="185" y1="45" x2="185" y2="270" stroke="#A8A8A8" stroke-width="1.5"/>
  <line x1="210" y1="45" x2="210" y2="270" stroke="#A8A8A8" stroke-width="1.5"/>
  <line x1="235" y1="45" x2="235" y2="270" stroke="#A8A8A8" stroke-width="1.5"/>
  <line x1="260" y1="45" x2="260" y2="270" stroke="#A8A8A8" stroke-width="1.5"/>
  <line x1="285" y1="45" x2="285" y2="270" stroke="#A8A8A8" stroke-width="1.5"/>

  <!-- Stone fill - varied circles and ovals for rocks -->
  <!-- Top flat stones -->
  <ellipse cx="135" cy="55" rx="18" ry="6" fill="#6A6A6A" stroke="#5A5A5A" stroke-width="1"/>
  <ellipse cx="175" cy="53" rx="20" ry="5" fill="#7A7A7A" stroke="#6A6A6A" stroke-width="1"/>
  <ellipse cx="220" cy="55" rx="22" ry="6" fill="#6E6E6E" stroke="#5E5E5E" stroke-width="1"/>
  <ellipse cx="265" cy="54" rx="18" ry="5" fill="#7A7A7A" stroke="#6A6A6A" stroke-width="1"/>

  <!-- Upper section stones -->
  <ellipse cx="125" cy="80" rx="12" ry="10" fill="#7A7A7A" stroke="#6A6A6A" stroke-width="1"/>
  <ellipse cx="150" cy="78" rx="10" ry="8" fill="#858585" stroke="#757575" stroke-width="1"/>
  <ellipse cx="175" cy="82" rx="14" ry="9" fill="#6E6E6E" stroke="#5E5E5E" stroke-width="1"/>
  <ellipse cx="200" cy="76" rx="11" ry="10" fill="#7A7A7A" stroke="#6A6A6A" stroke-width="1"/>
  <ellipse cx="228" cy="80" rx="13" ry="8" fill="#808080" stroke="#707070" stroke-width="1"/>
  <ellipse cx="255" cy="78" rx="10" ry="9" fill="#757575" stroke="#656565" stroke-width="1"/>
  <ellipse cx="278" cy="82" rx="9" ry="7" fill="#7A7A7A" stroke="#6A6A6A" stroke-width="1"/>

  <!-- Second row stones -->
  <ellipse cx="122" cy="105" rx="9" ry="8" fill="#808080" stroke="#707070" stroke-width="1"/>
  <ellipse cx="145" cy="108" rx="12" ry="9" fill="#7A7A7A" stroke="#6A6A6A" stroke-width="1"/>
  <ellipse cx="170" cy="103" rx="10" ry="11" fill="#6E6E6E" stroke="#5E5E5E" stroke-width="1"/>
  <ellipse cx="195" cy="107" rx="13" ry="8" fill="#858585" stroke="#757575" stroke-width="1"/>
  <ellipse cx="222" cy="105" rx="11" ry="10" fill="#7A7A7A" stroke="#6A6A6A" stroke-width="1"/>
  <ellipse cx="248" cy="108" rx="9" ry="7" fill="#757575" stroke="#656565" stroke-width="1"/>
  <ellipse cx="272" cy="104" rx="12" ry="9" fill="#808080" stroke="#707070" stroke-width="1"/>

  <!-- Third row stones (at ground level) -->
  <ellipse cx="128" cy="132" rx="11" ry="9" fill="#7A7A7A" stroke="#6A6A6A" stroke-width="1"/>
  <ellipse cx="155" cy="130" rx="13" ry="10" fill="#6E6E6E" stroke="#5E5E5E" stroke-width="1"/>
  <ellipse cx="182" cy="135" rx="10" ry="8" fill="#858585" stroke="#757575" stroke-width="1"/>
  <ellipse cx="208" cy="130" rx="12" ry="11" fill="#7A7A7A" stroke="#6A6A6A" stroke-width="1"/>
  <ellipse cx="235" cy="133" rx="9" ry="8" fill="#757575" stroke="#656565" stroke-width="1"/>
  <ellipse cx="260" cy="130" rx="14" ry="9" fill="#808080" stroke="#707070" stroke-width="1"/>
  <ellipse cx="282" cy="134" rx="8" ry="7" fill="#7A7A7A" stroke="#6A6A6A" stroke-width="1"/>

  <!-- Fourth row stones -->
  <ellipse cx="120" cy="157" rx="8" ry="9" fill="#808080" stroke="#707070" stroke-width="1"/>
  <ellipse cx="145" cy="160" rx="11" ry="8" fill="#7A7A7A" stroke="#6A6A6A" stroke-width="1"/>
  <ellipse cx="172" cy="155" rx="13" ry="10" fill="#6E6E6E" stroke="#5E5E5E" stroke-width="1"/>
  <ellipse cx="200" cy="158" rx="10" ry="9" fill="#858585" stroke="#757575" stroke-width="1"/>
  <ellipse cx="225" cy="162" rx="12" ry="8" fill="#7A7A7A" stroke="#6A6A6A" stroke-width="1"/>
  <ellipse cx="252" cy="156" rx="9" ry="10" fill="#757575" stroke="#656565" stroke-width="1"/>
  <ellipse cx="278" cy="160" rx="10" ry="7" fill="#808080" stroke="#707070" stroke-width="1"/>

  <!-- Fifth row stones -->
  <ellipse cx="125" cy="183" rx="12" ry="8" fill="#7A7A7A" stroke="#6A6A6A" stroke-width="1"/>
  <ellipse cx="152" cy="185" rx="9" ry="10" fill="#6E6E6E" stroke="#5E5E5E" stroke-width="1"/>
  <ellipse cx="180" cy="182" rx="14" ry="9" fill="#858585" stroke="#757575" stroke-width="1"/>
  <ellipse cx="208" cy="186" rx="11" ry="8" fill="#7A7A7A" stroke="#6A6A6A" stroke-width="1"/>
  <ellipse cx="235" cy="183" rx="10" ry="10" fill="#757575" stroke="#656565" stroke-width="1"/>
  <ellipse cx="262" cy="187" rx="13" ry="8" fill="#808080" stroke="#707070" stroke-width="1"/>
  <ellipse cx="283" cy="182" rx="7" ry="6" fill="#7A7A7A" stroke="#6A6A6A" stroke-width="1"/>

  <!-- Below grade stones - sixth row -->
  <ellipse cx="122" cy="208" rx="10" ry="9" fill="#808080" stroke="#707070" stroke-width="1"/>
  <ellipse cx="148" cy="210" rx="12" ry="8" fill="#7A7A7A" stroke="#6A6A6A" stroke-width="1"/>
  <ellipse cx="175" cy="207" rx="9" ry="10" fill="#6E6E6E" stroke="#5E5E5E" stroke-width="1"/>
  <ellipse cx="202" cy="212" rx="13" ry="9" fill="#858585" stroke="#757575" stroke-width="1"/>
  <ellipse cx="230" cy="208" rx="11" ry="8" fill="#7A7A7A" stroke="#6A6A6A" stroke-width="1"/>
  <ellipse cx="255" cy="210" rx="10" ry="10" fill="#757575" stroke="#656565" stroke-width="1"/>
  <ellipse cx="280" cy="207" rx="8" ry="7" fill="#808080" stroke="#707070" stroke-width="1"/>

  <!-- Seventh row stones -->
  <ellipse cx="128" cy="233" rx="11" ry="8" fill="#7A7A7A" stroke="#6A6A6A" stroke-width="1"/>
  <ellipse cx="155" cy="235" rx="10" ry="10" fill="#6E6E6E" stroke="#5E5E5E" stroke-width="1"/>
  <ellipse cx="182" cy="232" rx="13" ry="9" fill="#858585" stroke="#757575" stroke-width="1"/>
  <ellipse cx="210" cy="236" rx="9" ry="8" fill="#7A7A7A" stroke="#6A6A6A" stroke-width="1"/>
  <ellipse cx="238" cy="233" rx="12" ry="10" fill="#757575" stroke="#656565" stroke-width="1"/>
  <ellipse cx="265" cy="235" rx="10" ry="8" fill="#808080" stroke="#707070" stroke-width="1"/>
  <ellipse cx="283" cy="232" rx="7" ry="6" fill="#7A7A7A" stroke="#6A6A6A" stroke-width="1"/>

  <!-- Bottom row stones -->
  <ellipse cx="125" cy="258" rx="12" ry="9" fill="#808080" stroke="#707070" stroke-width="1"/>
  <ellipse cx="152" cy="260" rx="9" ry="7" fill="#7A7A7A" stroke="#6A6A6A" stroke-width="1"/>
  <ellipse cx="178" cy="257" rx="11" ry="10" fill="#6E6E6E" stroke="#5E5E5E" stroke-width="1"/>
  <ellipse cx="205" cy="262" rx="13" ry="8" fill="#858585" stroke="#757575" stroke-width="1"/>
  <ellipse cx="232" cy="258" rx="10" ry="9" fill="#7A7A7A" stroke="#6A6A6A" stroke-width="1"/>
  <ellipse cx="258" cy="261" rx="12" ry="8" fill="#757575" stroke="#656565" stroke-width="1"/>
  <ellipse cx="280" cy="257" rx="9" ry="7" fill="#808080" stroke="#707070" stroke-width="1"/>

  <!-- Ground level line -->
  <line x1="0" y1="120" x2="400" y2="120" stroke="#8B7355" stroke-width="3" stroke-dasharray="10,5"/>
  <text x="25" y="115" font-family="Arial, sans-serif" font-size="10" fill="#8B7355">GROUND LEVEL</text>

  <!-- Dimension lines and labels -->
  <!-- Width dimension (60cm) -->
  <line x1="110" y1="285" x2="290" y2="285" stroke="#333" stroke-width="1"/>
  <line x1="110" y1="280" x2="110" y2="290" stroke="#333" stroke-width="1"/>
  <line x1="290" y1="280" x2="290" y2="290" stroke="#333" stroke-width="1"/>
  <text x="200" y="295" font-family="Arial, sans-serif" font-size="11" text-anchor="middle" fill="#333">60 cm</text>

  <!-- Above grade dimension (50cm) -->
  <line x1="320" y1="45" x2="320" y2="120" stroke="#333" stroke-width="1"/>
  <line x1="315" y1="45" x2="325" y2="45" stroke="#333" stroke-width="1"/>
  <line x1="315" y1="120" x2="325" y2="120" stroke="#333" stroke-width="1"/>
  <text x="340" y="87" font-family="Arial, sans-serif" font-size="11" text-anchor="middle" fill="#333" transform="rotate(-90,340,87)">50 cm</text>

  <!-- Below grade dimension (30cm) -->
  <line x1="320" y1="195" x2="320" y2="270" stroke="#333" stroke-width="1"/>
  <line x1="315" y1="195" x2="325" y2="195" stroke="#333" stroke-width="1"/>
  <line x1="315" y1="270" x2="325" y2="270" stroke="#333" stroke-width="1"/>
  <text x="340" y="237" font-family="Arial, sans-serif" font-size="11" text-anchor="middle" fill="#333" transform="rotate(-90,340,237)">30 cm</text>

  <!-- Trench bottom line indicator -->
  <line x1="110" y1="195" x2="80" y2="195" stroke="#8B7355" stroke-width="1" stroke-dasharray="5,3"/>
  <text x="60" y="200" font-family="Arial, sans-serif" font-size="9" fill="#8B7355" text-anchor="end">Trench</text>

  <!-- Labels -->
  <text x="50" y="180" font-family="Arial, sans-serif" font-size="10" fill="#8B6914" text-anchor="middle">Earth</text>
  <text x="350" y="180" font-family="Arial, sans-serif" font-size="10" fill="#8B6914" text-anchor="middle">Earth</text>
  <text x="200" y="150" font-family="Arial, sans-serif" font-size="10" fill="#5A5A5A" text-anchor="middle">Stone Fill</text>
  <text x="70" y="60" font-family="Arial, sans-serif" font-size="9" fill="#A8A8A8">Wire Mesh</text>
  <line x1="85" y1="62" x2="108" y2="70" stroke="#A8A8A8" stroke-width="1"/>
</svg>